<svg xmlns="http://www.w3.org/2000/svg" xmlns:xlink="http://www.w3.org/1999/xlink" viewBox="0 0 742.8 631.02"><defs><style>.cls-1{fill:url(#Degradado_sin_nombre_10);}.cls-2{fill:url(#Degradado_sin_nombre_13);}.cls-3{fill:url(#Degradado_sin_nombre_13-2);}.cls-4{fill:url(#Degradado_sin_nombre_13-3);}.cls-5{fill:url(#Degradado_sin_nombre_13-4);}.cls-6{fill:url(#Degradado_sin_nombre_15);}.cls-7{fill:none;}.cls-8{clip-path:url(#clip-path);}.cls-9{fill:url(#Degradado_sin_nombre_19);}.cls-10{clip-path:url(#clip-path-2);}.cls-11{mask:url(#mask);}.cls-12{fill:url(#Degradado_sin_nombre_3);}.cls-13{fill:#fab848;}.cls-14{opacity:0.7;}.cls-15{clip-path:url(#clip-path-4);}.cls-16{fill:#f6a23c;}.cls-17{clip-path:url(#clip-path-5);}.cls-18{fill:url(#Degradado_sin_nombre_27);}.cls-19{clip-path:url(#clip-path-6);}.cls-20{fill:#aec1ce;}.cls-21{opacity:0.8;}.cls-22{clip-path:url(#clip-path-8);}.cls-23{clip-path:url(#clip-path-9);}.cls-24{mask:url(#mask-2);}.cls-25{fill:url(#Degradado_sin_nombre_12);}.cls-26{clip-path:url(#clip-path-10);}.cls-27{clip-path:url(#clip-path-11);}.cls-28{mask:url(#mask-3);}.cls-29{fill:url(#Degradado_sin_nombre_12-2);}.cls-30{clip-path:url(#clip-path-12);}.cls-31{clip-path:url(#clip-path-13);}.cls-32{mask:url(#mask-4);}.cls-33{fill:url(#Degradado_sin_nombre_12-3);}.cls-34{clip-path:url(#clip-path-14);}.cls-35{clip-path:url(#clip-path-15);}.cls-36{mask:url(#mask-5);}.cls-37{fill:url(#Degradado_sin_nombre_12-4);}.cls-38{clip-path:url(#clip-path-16);}.cls-39{mask:url(#mask-6);}.cls-40{fill:url(#Degradado_sin_nombre_14);}.cls-41{fill:#d1711e;}.cls-42{fill:#c96216;}.cls-43{fill:#fbcb9e;}.cls-44{fill:#f9b87b;}.cls-45{fill:#1d262d;}.cls-46{fill:#dac58b;}.cls-47{fill:#c2ac74;}.cls-48{fill:#e5d0a2;}.cls-49{fill:#9e8a5d;}.cls-50{fill:#f1f1f1;}.cls-51{fill:#d3d2d1;}.cls-52{fill:#f4992b;}.cls-53{clip-path:url(#clip-path-18);}.cls-54{fill:#ce7213;}.cls-55{fill:#eb860c;}.cls-56{fill:#b56416;}.cls-57{opacity:0.6;}.cls-58{clip-path:url(#clip-path-19);}.cls-59{fill:#674911;}.cls-60{fill:#f8ac39;}.cls-61{fill:#3f4f45;}.cls-62{fill:#333f37;}.cls-63{fill:#4d6053;}.cls-64{fill:#fff;}.cls-65{fill:#484e1c;}.cls-66{fill:#33361a;}.cls-67{fill:#656c23;}.cls-68{fill:#555d21;}.cls-69{fill:#583117;}.cls-70{fill:#3c170e;}.cls-71{fill:#686b3a;}.cls-72{fill:#27391f;}</style><radialGradient id="Degradado_sin_nombre_10" cx="-370.8" cy="-242.98" r="1.12" gradientTransform="matrix(130.37, 0, 0, -130.37, 48733.23, -31286.01)" gradientUnits="userSpaceOnUse"><stop offset="0" stop-color="#fff"/><stop offset="0.14" stop-color="#fff"/><stop offset="0.24" stop-color="#fafafa"/><stop offset="0.34" stop-color="#ededed"/><stop offset="0.45" stop-color="#d6d6d6"/><stop offset="0.57" stop-color="#b6b6b6"/><stop offset="0.69" stop-color="#8d8d8d"/><stop offset="0.81" stop-color="#5b5b5b"/><stop offset="0.94" stop-color="#202020"/><stop offset="1"/></radialGradient><linearGradient id="Degradado_sin_nombre_13" x1="-388.94" y1="-245.31" x2="-387.82" y2="-245.31" gradientTransform="matrix(0, -51, -51, 0, -12059.57, -19607.54)" gradientUnits="userSpaceOnUse"><stop offset="0"/><stop offset="0.07"/><stop offset="0.4" stop-color="#fff"/><stop offset="1" stop-color="#fff"/></linearGradient><linearGradient id="Degradado_sin_nombre_13-2" x1="-390.24" y1="-228.73" x2="-389.12" y2="-228.73" gradientTransform="translate(10775.54 -18012.56) rotate(-90) scale(46.64)" xlink:href="#Degradado_sin_nombre_13"/><linearGradient id="Degradado_sin_nombre_13-3" x1="-406.85" y1="-255.43" x2="-405.72" y2="-255.43" gradientTransform="matrix(0, -22.72, -22.72, 0, -5396.85, -9157.3)" xlink:href="#Degradado_sin_nombre_13"/><linearGradient id="Degradado_sin_nombre_13-4" x1="-417.71" y1="-259.45" x2="-416.58" y2="-259.45" gradientTransform="matrix(0, -17.52, -17.52, 0, -4368.34, -7056.92)" xlink:href="#Degradado_sin_nombre_13"/><linearGradient id="Degradado_sin_nombre_15" x1="-409.17" y1="-256.41" x2="-408.05" y2="-256.41" gradientTransform="matrix(0, -21.91, -21.91, 0, -5152.31, -8659.46)" gradientUnits="userSpaceOnUse"><stop offset="0"/><stop offset="0.09"/><stop offset="0.66" stop-color="#fff"/><stop offset="1" stop-color="#fff"/></linearGradient><clipPath id="clip-path" transform="translate(74.45 5)"><rect class="cls-7" width="562" height="562"/></clipPath><linearGradient id="Degradado_sin_nombre_19" x1="-375.6" y1="-237.81" x2="-374.47" y2="-237.81" gradientTransform="matrix(0, -500, -500, 0, -118549.55, -187232)" gradientUnits="userSpaceOnUse"><stop offset="0" stop-color="#fff"/><stop offset="0.12" stop-color="#fff"/><stop offset="0.22" stop-color="#fcfbfa"/><stop offset="0.34" stop-color="#f5f1ea"/><stop offset="0.48" stop-color="#e9e1d0"/><stop offset="0.62" stop-color="#d9caad"/><stop offset="1" stop-color="#d9caad"/></linearGradient><clipPath id="clip-path-2" transform="translate(74.45 5)"><path class="cls-7" d="M247.38,390.62A146.64,146.64,0,1,0,394,244,146.64,146.64,0,0,0,247.38,390.62"/></clipPath><mask id="mask" x="321.83" y="248.98" width="293.62" height="293.28" maskUnits="userSpaceOnUse"><g transform="translate(74.45 5)"><rect class="cls-1" x="247.38" y="243.98" width="293.28" height="293.28"/></g></mask><radialGradient id="Degradado_sin_nombre_3" cx="-370.79" cy="-242.98" r="1.12" gradientTransform="matrix(130.37, 0, 0, -130.37, 48807.68, -31281.01)" gradientUnits="userSpaceOnUse"><stop offset="0" stop-color="#fff"/><stop offset="0.14" stop-color="#fff"/><stop offset="0.38" stop-color="#fffdfa"/><stop offset="0.65" stop-color="#fff7ed"/><stop offset="0.93" stop-color="#feecd6"/><stop offset="1" stop-color="#fee9cf"/></radialGradient><clipPath id="clip-path-4" transform="translate(74.45 5)"><rect class="cls-7" x="353" y="350" width="82" height="82"/></clipPath><clipPath id="clip-path-5" transform="translate(74.45 5)"><path class="cls-7" d="M57.22,295.05C37.25,303.1,19.29,315.19,0,324.6V562H562V340.89a76.77,76.77,0,0,0-30,.52c-15.11,3.11-29,9.3-43.41,16.12-12.05,5.71-24.42,11.07-36.21,17.27-10.61,5.58-20.66,12.18-32.07,16.06-14.44,4.9-27.41,4-40.82-3.38-11.22-6.17-20.64-16.17-28.59-26.07a282.92,282.92,0,0,1-21.69-31.5c-.27-.44-.44-.74-.54-.92l-.71-1c-1.09-1.52-2.2-3-3.37-4.47a62.68,62.68,0,0,0-6.66-7.16l-.63-.44c-1.21-.83-2.36-1.74-3.6-2.53-.84-.53-1.7-1-2.57-1.52-.41-.16-1.32-.56-1.71-.68-1.46-.46-2.91-.95-4.37-1.4l-.46-.14c-.31,0-.71,0-1.29-.08-1.91-.17-3.82-.26-5.74-.31l-.56,0-.66.12c-1.31.21-2.63.34-3.94.58a71.14,71.14,0,0,0-6.93,1.63c-.5.14-1.31.41-1.8.58l-.71.25c-1.34.54-2.71,1-4.05,1.58-2.29.94-4.55,2-6.78,3-5.12,2.43-10.11,5.12-15,7.92-22.73,12.88-45.66,31.07-72.84,31.92-33,1-50.27-32.29-70.5-52.85A53.91,53.91,0,0,0,99.3,293c.11.12-2.91-1.17-2.91-1.17-1-.37-2-.7-2.94-1-.1,0-2.76-.7-2.93-.8-1.16-.2-2.33-.35-3.49-.46q-2-.18-4-.18c-8.75,0-17.94,2.51-25.82,5.69"/></clipPath><linearGradient id="Degradado_sin_nombre_27" x1="-377.3" y1="-238.67" x2="-376.17" y2="-238.67" gradientTransform="matrix(0, -242.38, -242.38, 0, -57493.84, -90882.48)" gradientUnits="userSpaceOnUse"><stop offset="0" stop-color="#885843"/><stop offset="0.54" stop-color="#885843"/><stop offset="1" stop-color="#3c170e"/></linearGradient><clipPath id="clip-path-6" transform="translate(74.45 5)"><path class="cls-7" d="M451.39,498.1c-52.21,17.58-131.23-1.77-161.79,63.9H441.68c7.53-9.78,16.31-18.69,25.24-27.08A419.37,419.37,0,0,1,509,500.63c7-5.05,14-10.15,20.53-15.86a131,131,0,0,0,9.61-9.39c.49-.51,1-1.08,1.46-1.62.85-1,1.71-2.06,2.54-3.11a214.08,214.08,0,0,0,15.55-22.8c1.12-1.88,2.21-3.77,3.29-5.67V395.6c-31.48,42.82-45.37,80.54-110.61,102.5"/></clipPath><clipPath id="clip-path-8" transform="translate(74.45 5)"><rect class="cls-7" x="358" y="171" width="186" height="51"/></clipPath><clipPath id="clip-path-9" transform="translate(74.45 5)"><path class="cls-7" d="M544.56,222l-6.07-4.69a31.93,31.93,0,0,0-16.21-4.38,25.11,25.11,0,0,0-4.75.56,16,16,0,0,0-8.13,2.2,8.89,8.89,0,0,0-4.36,2h0a25.85,25.85,0,0,0-6.23-10l-5.26-4.07a26,26,0,0,0-13.12-3.55,19.76,19.76,0,0,0-8.26,1.44,17,17,0,0,0-1.79-5.33,17.28,17.28,0,0,0-4.81-7.49,23.15,23.15,0,0,0-10.27-6c-4.37-1.2-5.72-1-9.5-.46a11.24,11.24,0,0,0-2,.18,25.84,25.84,0,0,0-3.19-3.94l-4.95-3.82a24.32,24.32,0,0,0-12.34-3.34,27.27,27.27,0,0,0-17.3,7.16,18.34,18.34,0,0,0-5.05,7.87,18.46,18.46,0,0,0-2.11,9.41c-5.44,2.57-9.64,7.9-10,14-7.23-1.13-14.59-.29-21.07,3.5A32.44,32.44,0,0,0,358.3,222Z"/></clipPath><mask id="mask-2" x="432.45" y="176" width="186.56" height="51.3" maskUnits="userSpaceOnUse"><g transform="translate(74.45 5)"><rect class="cls-2" x="358.3" y="171.48" width="186.27" height="50.82"/></g></mask><linearGradient id="Degradado_sin_nombre_12" x1="-388.94" y1="-245.3" x2="-387.81" y2="-245.3" gradientTransform="matrix(0, -51, -51, 0, -11985.11, -19602.54)" gradientUnits="userSpaceOnUse"><stop offset="0" stop-color="#fff"/><stop offset="0.07" stop-color="#fff"/><stop offset="0.4" stop-color="#fff"/><stop offset="1" stop-color="#fff"/></linearGradient><clipPath id="clip-path-10" transform="translate(74.45 5)"><rect class="cls-7" x="28" y="136" width="159" height="46"/></clipPath><clipPath id="clip-path-11" transform="translate(74.45 5)"><path class="cls-7" d="M28,182a18.67,18.67,0,0,1,13.6-19.8,14.52,14.52,0,0,1,3-.51,9.61,9.61,0,0,1,5,0,6.35,6.35,0,0,1,2.82.45,14.27,14.27,0,0,1,6.45,3.4,14.23,14.23,0,0,1,4.89,5.32c.17.42.35.83.53,1.25a18.77,18.77,0,0,1,2.29-6.26l3-3.85a19,19,0,0,1,8.4-4.9,51,51,0,0,1,5.89-.76,14.64,14.64,0,0,1,2.49.12,7.08,7.08,0,0,1,.79-2.09,7,7,0,0,1,1.77-3,6.91,6.91,0,0,1,2.48-2.47,6.78,6.78,0,0,1,3-1.77,10.32,10.32,0,0,1,5.31-1.19l1.13.15a14,14,0,0,1,27.57,2.68,12.81,12.81,0,0,1,5.63,1.44,15.68,15.68,0,0,1,8.44,7.61l.94-.72a18.93,18.93,0,0,1,9.62-2.6,14.23,14.23,0,0,1,7.33,1.64,17.09,17.09,0,0,1,10.07,10.06,14,14,0,0,1,1,2.42c7.16.62,13.22,6.77,15.39,13.42Z"/></clipPath><mask id="mask-3" x="102.18" y="141" width="159.27" height="46.44" maskUnits="userSpaceOnUse"><g transform="translate(74.45 5)"><rect class="cls-3" x="27.73" y="136.07" width="159.15" height="46.37"/></g></mask><linearGradient id="Degradado_sin_nombre_12-2" x1="-390.23" y1="-228.73" x2="-389.12" y2="-228.73" gradientTransform="translate(10849.99 -18007.56) rotate(-90) scale(46.64)" xlink:href="#Degradado_sin_nombre_12"/><clipPath id="clip-path-12" transform="translate(74.45 5)"><rect class="cls-7" x="360" y="59" width="91" height="23"/></clipPath><clipPath id="clip-path-13" transform="translate(74.45 5)"><path class="cls-7" d="M451.43,82a14.6,14.6,0,0,0-3.37-5.31,15.11,15.11,0,0,0-10.26-4.25,11.7,11.7,0,0,0-3,.28,11,11,0,0,0-1.95-1.63,7,7,0,0,0-3.13-1.82,10.59,10.59,0,0,0-5.46-1.22,12.94,12.94,0,0,0-4.29.45,14.11,14.11,0,0,0-4,1.87l0-.35a14.49,14.49,0,0,0-3.72-6.37l-2.92-2.26a14.44,14.44,0,0,0-7.29-2,16.17,16.17,0,0,0-10.21,4.23,10.89,10.89,0,0,0-3,4.65,10.42,10.42,0,0,0-.85,2.16,9.08,9.08,0,0,0-2.52-.35,7.83,7.83,0,0,0-7.19,4.08,14.35,14.35,0,0,0-4.73-.78,16.14,16.14,0,0,0-10.29,4.26A10.86,10.86,0,0,0,360.37,82Z"/></clipPath><mask id="mask-4" x="434.45" y="64" width="91.43" height="23.23" maskUnits="userSpaceOnUse"><g transform="translate(74.45 5)"><rect class="cls-4" x="360.37" y="59.58" width="91.06" height="22.65"/></g></mask><linearGradient id="Degradado_sin_nombre_12-3" x1="-406.84" y1="-255.41" x2="-405.7" y2="-255.41" gradientTransform="matrix(0, -22.72, -22.72, 0, -5322.39, -9152.3)" xlink:href="#Degradado_sin_nombre_12"/><clipPath id="clip-path-14" transform="translate(74.45 5)"><rect class="cls-7" x="133" y="243" width="90" height="17"/></clipPath><clipPath id="clip-path-15" transform="translate(74.45 5)"><path class="cls-7" d="M222.92,260a13.5,13.5,0,0,0-2.77-4.71l-2.79-2.37a13.58,13.58,0,0,0-6.65-2.13,15.22,15.22,0,0,0-9.87,3.49,12,12,0,0,0-1.14,1.11,11.41,11.41,0,0,0-1.3-1.76l-2.39-2a11.85,11.85,0,0,0-5.7-1.83,9,9,0,0,0-3.33.32,10.43,10.43,0,0,0-2.25-4l-2.17-1.84a10.7,10.7,0,0,0-5.15-1.65,8,8,0,0,0-4,.66,7.89,7.89,0,0,0-3.64,2,8,8,0,0,0-2.43,3.41c-.14.25-.27.51-.39.77a8.55,8.55,0,0,0-5.78-2.28,10.56,10.56,0,0,0-9.54,5.84,12.15,12.15,0,0,0-5.92-1.9,9,9,0,0,0-4.6.75,9.15,9.15,0,0,0-4.19,2.36,9,9,0,0,0-2.78,3.92,8.83,8.83,0,0,0-.8,1.81Z"/></clipPath><mask id="mask-5" x="207.45" y="247.9" width="90" height="18.1" maskUnits="userSpaceOnUse"><g transform="translate(74.45 5)"><rect class="cls-5" x="133.34" y="242.9" width="89.58" height="17.51"/></g></mask><linearGradient id="Degradado_sin_nombre_12-4" x1="-417.74" y1="-259.44" x2="-416.59" y2="-259.44" gradientTransform="matrix(0, -17.52, -17.52, 0, -4293.89, -7051.92)" xlink:href="#Degradado_sin_nombre_12"/><clipPath id="clip-path-16" transform="translate(74.45 5)"><path class="cls-7" d="M455.6,280.43a15.67,15.67,0,0,0-8.18,9.44,8.74,8.74,0,0,0-2.42-.33,7.52,7.52,0,0,0-6.93,3.93,14.27,14.27,0,0,0-4.57-.76A13.57,13.57,0,0,0,420.81,301h87.81a13.92,13.92,0,0,0-3.25-5.12,14.54,14.54,0,0,0-9.89-4.09,10.81,10.81,0,0,0-2.86.26,10.24,10.24,0,0,0-1.89-1.57,6.86,6.86,0,0,0-3-1.76,10.39,10.39,0,0,0-5.27-1.18,12.57,12.57,0,0,0-4.14.44,13.89,13.89,0,0,0-3.87,1.8l0-.33a13.91,13.91,0,0,0-3.59-6.14L468,281.13a13.92,13.92,0,0,0-7-1.9h-.44a10.42,10.42,0,0,0-4.93,1.21"/></clipPath><mask id="mask-6" x="495.26" y="284" width="88.19" height="22.07" maskUnits="userSpaceOnUse"><g transform="translate(74.45 5)"><rect class="cls-6" x="420.81" y="279.29" width="87.81" height="21.78"/></g></mask><linearGradient id="Degradado_sin_nombre_14" x1="-409.17" y1="-256.42" x2="-408.03" y2="-256.42" gradientTransform="matrix(0, -21.91, -21.91, 0, -5077.85, -8654.46)" gradientUnits="userSpaceOnUse"><stop offset="0" stop-color="#fff"/><stop offset="0.09" stop-color="#fff"/><stop offset="0.66" stop-color="#fff"/><stop offset="1" stop-color="#fff"/></linearGradient><clipPath id="clip-path-18" transform="translate(74.45 5)"><path class="cls-7" d="M215.82,132.86c-7.45.68-12.71,9.78-11.74,20.33s7.78,18.55,15.23,17.86,12.7-9.78,11.74-20.33c-.92-10.12-7.25-17.9-14.35-17.9a8.64,8.64,0,0,0-.88,0"/></clipPath><clipPath id="clip-path-19" transform="translate(74.45 5)"><rect class="cls-7" x="215" y="144" width="7" height="18"/></clipPath></defs><g id="Capa_2" data-name="Capa 2"><g id="Draw"><g class="cls-8"><rect class="cls-9" x="74.45" y="5" width="562" height="562"/></g><g class="cls-10"><g class="cls-11"><rect class="cls-12" x="322.45" y="249" width="293" height="293"/></g></g><g class="cls-8"><path class="cls-13" d="M457.42,390.62a63.4,63.4,0,1,1-63.4-63.4,63.4,63.4,0,0,1,63.4,63.4" transform="translate(74.45 5)"/><g class="cls-14"><g class="cls-15"><path class="cls-16" d="M434.93,390.62A40.91,40.91,0,1,1,394,349.71a40.91,40.91,0,0,1,40.91,40.91" transform="translate(74.45 5)"/></g></g></g><g class="cls-17"><rect class="cls-18" x="74.45" y="294" width="562" height="273"/></g><g class="cls-19"><rect class="cls-20" x="364.45" y="401" width="272" height="166"/></g><g class="cls-8"><g class="cls-21"><g class="cls-22"><g class="cls-23"><g class="cls-24"><rect class="cls-25" x="432.45" y="176" width="186" height="51"/></g></g></g></g><g class="cls-21"><g class="cls-26"><g class="cls-27"><g class="cls-28"><rect class="cls-29" x="102.45" y="141" width="159" height="46"/></g></g></g></g><g class="cls-21"><g class="cls-30"><g class="cls-31"><g class="cls-32"><rect class="cls-33" x="434.45" y="64" width="91" height="23"/></g></g></g></g><g class="cls-21"><g class="cls-34"><g class="cls-35"><g class="cls-36"><rect class="cls-37" x="207.45" y="248" width="90" height="18"/></g></g></g></g></g><g class="cls-38"><g class="cls-39"><rect class="cls-40" x="495.45" y="284" width="88" height="22"/></g></g><g class="cls-8"><path class="cls-41" d="M284.58,374.15c-.61,8.84-6.12,37.35-6.12,37.35l-20.62,5.37s-1.59-2.26-.68-14.28,3.42-31.38,11.44-38.86Z" transform="translate(74.45 5)"/><path class="cls-42" d="M266.64,366c-6.48,8.59-8.66,25.66-9.48,36.62-.91,12,.68,14.28.68,14.28l6.08-1.58c-1.07-16.48-.54-32.92,2.72-49.32" transform="translate(74.45 5)"/><path class="cls-43" d="M256.75,409.85s-2.43,5-.9,13.65c0,0,12.49,3.44,18.46,1.58,0,0,1-.28,2.07-3.21,1-2.72,2.82-8.79,2.08-10.37,0,0-11.54,3.28-21.71-1.65" transform="translate(74.45 5)"/><path class="cls-44" d="M263.61,412a26.49,26.49,0,0,1-6.86-2.18s-2.43,5-.9,13.65a75.69,75.69,0,0,0,7.9,1.62c-.3-4.35-.17-8.77-.14-13.09" transform="translate(74.45 5)"/><path class="cls-45" d="M255.64,421s.56,2.8,10.91,3c2.9.07,9.52.16,9.83-2.3,0,0,1.34-1.46-.19,8.1-1.18,7.4-3.21,19.55-3.21,19.55s10.51-.11,11,6.64H254.44s-.89-34.4,1.2-35" transform="translate(74.45 5)"/><path class="cls-41" d="M240.41,376.68c-.62,8.91-21.75,74.32-21.75,74.32h-10s-.91-32.24,0-44.34,7.81-31.35,15.9-38.88Z" transform="translate(74.45 5)"/><path class="cls-42" d="M213.88,424.7c0-2.05,0-4.09.07-6.13a106.94,106.94,0,0,1,1.56-15.13,250.7,250.7,0,0,1,5.68-31.28c-6.58,9-11.79,24.61-12.58,35-.91,12.11,0,44.83,0,44.83h5.69c-.59-9.08-.74-18.2-.42-27.3" transform="translate(74.45 5)"/><path class="cls-43" d="M208.21,413.57s-2.46,5.08-.91,13.76c0,0,12.58,3.46,18.6,1.59a20.52,20.52,0,0,0,4.19-13.68s-11.64,3.3-21.88-1.67" transform="translate(74.45 5)"/><path class="cls-44" d="M213.61,415.52v-.06a25.37,25.37,0,0,1-5.4-1.89s-2.46,5.08-.91,13.76c0,0,2.85.78,6.48,1.4-.22-4.39-.18-8.81-.17-13.21" transform="translate(74.45 5)"/><path class="cls-45" d="M207.09,425.49s.56,2.71,11,3c2.92.07,9.59.11,9.91-2.37,0,0,1.77-.19-.87,7.22-2.54,7.11-5.3,20.81-5.3,20.81s10.59-1,11.12,6.89H203.13s1.85-34.87,4-35.51" transform="translate(74.45 5)"/><path class="cls-45" d="M270.71,149.66c-17.39,3.1-40.85,8.58-45.36,19.21S214,255.51,213.17,270.72s20.63,12.39,20.63,12.39l32.94-4.22L277.52,174Z" transform="translate(74.45 5)"/><path class="cls-46" d="M256.44,375.19c3.86,5.69,25.07,5.83,30.45-.09s5.9-81.58,4.09-99.71l-55.22-3.25s-7.93,1.62-9.45,7.14c-5.75,20.94.08,28.78-3.56,45.84-4.94,23.12-6.61,41.85-5.82,43.55,7.33,15.79,28.23,11.46,31,8.15s10-62.07,10-62.07l4-.37c-.61,16.71-8.21,56.85-5.53,60.81" transform="translate(74.45 5)"/><path class="cls-47" d="M218.33,371.2c.68-4.51,1.45-9,2.38-13.47,2.28-11.07,6.48-21.57,8.83-32.65,2.43-11.49,2.54-22.72,3.3-34.36.39-5.92.76-12.42,2.3-18.43-1.88.51-7.57,2.4-8.83,7-5.75,20.94.08,28.77-3.56,45.84-4.94,23.12-6.61,41.85-5.82,43.55a19.69,19.69,0,0,0,1.4,2.53" transform="translate(74.45 5)"/><path class="cls-47" d="M250.23,311.22c2.34,1.83,7.74,3.53,7.74,3.53l4-.37c-.07,1.88-.23,4.06-.45,6.45a1.29,1.29,0,0,1,0,.39c-1.79,18.89-7.41,50.48-5.05,54,1,1.42,3,2.5,5.66,3.22-2.13-6.17-1.2-13.4-.49-20.13,1.71-16.39,2.29-26,4.68-42.26.19-1.27,5.16-4.76,5.83-9-4.23,4.49-9.64,6.21-21.89,4.22" transform="translate(74.45 5)"/><path class="cls-48" d="M285.9,277.76a77.88,77.88,0,0,0,4.6,20.66,26.76,26.76,0,0,0,1.39,2.95c-.08-11.31-.41-20.9-.91-26l-6.19-.36a4.8,4.8,0,0,1,1.11,2.73" transform="translate(74.45 5)"/><path class="cls-47" d="M216.89,363.06c-.21,3.12-.2,5.11,0,5.61,7.33,15.79,28.23,11.46,31,8.15.59-.7,1.37-3.87,2.25-8.41-9.08,4.74-24.93,1.68-33.32-5.35" transform="translate(74.45 5)"/><path class="cls-47" d="M236.74,298.54c6-4.48,9.71-13.28,11.42-20.24a4.64,4.64,0,0,1,2.1-3c.19-.75.41-1.5.64-2.25l-15.14-.89s-7.93,1.62-9.45,7.14a70.75,70.75,0,0,0-2.64,22.44c4.7.33,9.33-.37,13.07-3.18" transform="translate(74.45 5)"/><path class="cls-49" d="M224.4,290.15c1.5,0,7.75-8.33,9.1-9.82a99.68,99.68,0,0,0,6.44-7.94l-4.18-.25s-7.93,1.62-9.45,7.14a75.61,75.61,0,0,0-2.18,10.9l.27,0" transform="translate(74.45 5)"/><path class="cls-47" d="M256.14,365.81c-.39,4.87-.39,8.35.31,9.38,3.85,5.69,25.06,5.83,30.44-.09,1-1.14,1.89-4.86,2.58-10.25-10.35,5.67-24.78,7.9-33.33,1" transform="translate(74.45 5)"/><path class="cls-50" d="M293.8,247.47c-3.44,9.39-3.44,21.62,0,30,0,0-22.92,18-63-1.91l34.57-117.47L288,161.7l16.82,44.69-11,41.08" transform="translate(74.45 5)"/><path class="cls-51" d="M263,166,230.77,275.58a94.54,94.54,0,0,0,19,7.12c1.69-8.2,6.07-15.35,11.1-22.16,5.7-7.73,10.07-14.84,12.34-24.32,4.08-17,2.09-34.95.95-52.45A68.9,68.9,0,0,0,263,166" transform="translate(74.45 5)"/><path class="cls-52" d="M231.05,150.72c1,10.55-4.29,19.65-11.74,20.34s-14.27-7.32-15.23-17.87,4.29-19.65,11.74-20.33,14.27,7.31,15.23,17.86" transform="translate(74.45 5)"/></g><g class="cls-53"><path class="cls-54" d="M233.38,150.73c.59,6.41,3.26,10-.53,13-1.49,1.17-11,5.33-12.87,5.5-6.65.61-12.7-6.14-13.52-15.06s3.66-16.85,10.21-18.16c3.12-.62,15.25-3.31,15.25-3.31s.78,10.53,1.46,18" transform="translate(74.45 5)"/><path class="cls-55" d="M233.38,150.73c-.68-7.5-1.46-18-1.46-18s-12.13,2.69-15.25,3.31l-.27.08c12.69,2,16.62,28.59,4.71,32.87,0,.11.32-.2.31-.1,3.28-1.06,10.18-4.15,11.43-5.13,3.79-3,1.12-6.59.53-13" transform="translate(74.45 5)"/><path class="cls-56" d="M227.52,161.13a8,8,0,0,1-6.94,3.79c-3.47-.33-8.44-3.23-9-11.79-.52-7.48,2.81-11.59,4.38-12.35s2.34-.76,5.89-1.81c6,4.31,8.46,15.28,5.7,22.16" transform="translate(74.45 5)"/><g class="cls-57"><g class="cls-58"><path class="cls-59" d="M216.15,144.35c-1,.51-2.13,3-1.54,9.91.33,3.85,2.95,8.05,5.14,7.45,4.35-1.19,1.37-19.78-3.6-17.36" transform="translate(74.45 5)"/></g></g></g><g class="cls-8"><path class="cls-60" d="M221.44,170.61c2.58-.65,14.69-8.59,30.93-14.86,6.43-2.48,43.78-13,51.18-14.39,0,0,3.1-4.39,1.26-15.41a36.88,36.88,0,0,0-9.07-18.26s-64,21.9-81.4,22.6c0,0,9.55,2.28,13.5,10.75,3.48,7.46,3.69,15,1.59,20.06-3.24,7.81-8,9.51-8,9.51" transform="translate(74.45 5)"/><path class="cls-55" d="M233.1,126.79s.12-.75,2-.19c0,0,5.89,2.25,8.27,15.84,2.34,13.4-2.27,18.08-2.28,18.16l-1.65.8s4.84-4.83,2.28-19.53c-2.13-12.25-8.62-15.08-8.62-15.08" transform="translate(74.45 5)"/><path class="cls-41" d="M200.33,240.76a146.75,146.75,0,0,0-8.66,44.17s-3.31,6.12-4.26,8.22,2.48,4.59,5.16,6.5,6.88,2.48,7.64,0,2.68-9,1.45-12.68,10.45-21,13.19-41.32h0l-14.52-4.89" transform="translate(74.45 5)"/><path class="cls-42" d="M198.89,296.75c-10.06-.73-4.56-15.35-3.44-20.66,2.37-11.21,4.47-23.29,9-33.93l-4.16-1.4a146.75,146.75,0,0,0-8.66,44.17s-3.31,6.12-4.26,8.22,2.48,4.59,5.16,6.5,6.88,2.48,7.64,0c.23-.74.56-1.86.88-3.14a5.78,5.78,0,0,1-2.2.24" transform="translate(74.45 5)"/><path class="cls-61" d="M265.34,158.11S226.57,167.4,216.89,183s-14.77,39.51-14.26,52.75l13.24,5a197.77,197.77,0,0,0,13-27.2S225.55,234,224,246.16s-9.17,22.67-17.32,31.33-11.78,20.88-4.11,39.73c0,0,1.56-13.75,17.35-28.52s33.91-25.22,45.4-43c15.44-23.93,21.33-53.55,0-87.55" transform="translate(74.45 5)"/><path class="cls-62" d="M206.7,277.49c-7.81,8.3-11.45,19.89-5,37.43-.48-14.37,1.21-22.53,9.76-35.33,6.33-9.48,14.29-23.33,16.37-34.94,1.68-9.39.73-19.05.6-28.57-.93,5.83-3.23,20.49-4.43,30.08-1.53,12.2-9.17,22.67-17.32,31.33" transform="translate(74.45 5)"/><path class="cls-62" d="M229.64,188.59c10.31-12.05,23.35-20.72,37.18-28-.48-.81-1-1.63-1.48-2.44,0,0-38.77,9.29-48.45,24.86s-14.77,39.51-14.26,52.75l7.4,2.82c-.73-17.6,8.72-37.21,19.61-49.95" transform="translate(74.45 5)"/><path class="cls-63" d="M265.34,158.11s-2.53.61-6.46,1.77c5.57,18.18,3.19,38.2-2.68,56.22.21.07,9.14-1.77,8.62,8.12-1,18.38-19.66,33.66-52.23,65.4-6,5.82-7.49,13.9-8.36,21.64,2-5.39,6.33-13.78,15.71-22.56,15.79-14.77,33.91-25.22,45.4-43,15.44-23.93,21.33-53.55,0-87.55" transform="translate(74.45 5)"/><path class="cls-46" d="M202.67,230.88a14.72,14.72,0,0,0-2.34,9.88s11.21,5.15,14.52,4.9a12.07,12.07,0,0,0,3.23-8.85s-4.67-4.9-15.41-5.93" transform="translate(74.45 5)"/><path class="cls-47" d="M210.74,232.62a33.19,33.19,0,0,0-8.07-1.73,14.66,14.66,0,0,0-2.34,9.87s2.26,1,5,2.15a11.17,11.17,0,0,1,5.37-10.29" transform="translate(74.45 5)"/><path class="cls-61" d="M286.67,161.1S321.3,173.29,335.83,194c0,0,5.34,10.19,4.58,17.58,0,0-16.55,2.11-35.4-8.12,0,0-1.53,32.37-11.21,44.06,0,0,8.66-28.3,2.8-54s-9.93-30.92-9.93-30.92" transform="translate(74.45 5)"/><path class="cls-63" d="M295,244.07c1.42-4.27,3-8.47,4.43-12.76,2.53-7.71,3-15.9,2.94-23.86,0-3.71-.21-5.83.7-9.43.13-1,1.84-4.9,2-5.85-3.68-3.34-4.62-7.38-6.23-12.29-2.36-7.16-7.58-16.11-11.91-18.17v.81s4.07,5.2,9.93,30.92c4.64,20.39.17,42.38-1.89,50.63" transform="translate(74.45 5)"/><path class="cls-41" d="M348.17,209.73c2.93-3.37,16.21-30,3-55.92,0,0-.18-3.8-.94-9.91l-12.05.84s.77,6.45,5.71,9.21a127.81,127.81,0,0,0-6.29,39.59Z" transform="translate(74.45 5)"/><path class="cls-42" d="M341.77,185c1.83-10,1.91-21.83,7.6-30.6a5.08,5.08,0,0,1,1.77-1.7c-.11-1.54-.35-4.64-.88-8.83l-12.05.84s.77,6.45,5.71,9.22a127.71,127.71,0,0,0-6.29,39.58l2.22,3.41c.52-4,1.2-7.95,1.92-11.92" transform="translate(74.45 5)"/><path class="cls-46" d="M338.88,194a2.72,2.72,0,0,0-3.05-.07s-1.15,12.55,4.58,17.58c0,0,6.49,1,8-2.23,0,0-3.09-11.63-9.55-15.28" transform="translate(74.45 5)"/><path class="cls-45" d="M226.4,229.33c-1.17.6-2.72,5.52-.8,5.35s17.53-6,28.73-23,7.83-42.77,4.55-51.8c0,0-5.1-2.62-8.87,2.87,0,0,6.24,25.77-.44,43.2s-23.17,23.38-23.17,23.38" transform="translate(74.45 5)"/><path class="cls-45" d="M286.23,160.59a2.78,2.78,0,0,1,1.91-.77c3.82,0,11.85,8.35,15.13,17,6.17,16.27,7.72,34.85-1,47.7,0,0,5.13-13.17-3.28-40.06-6.13-19.62-12.73-23.88-12.73-23.88" transform="translate(74.45 5)"/><path class="cls-64" d="M264.21,158.39a3.52,3.52,0,0,1,2.09-3.15s6.49,7.26,16,8.79a29.59,29.59,0,0,0-3.44,4.2,10.42,10.42,0,0,0-1.37,4.78s-10.46-6.59-13.32-14.62" transform="translate(74.45 5)"/><path class="cls-64" d="M282.34,164s4.24-1.24,4.33-4.21L288,161.7s2.76,3.09-1.32,9.4c0,0,.33-5.83-4.33-7.07" transform="translate(74.45 5)"/><path class="cls-41" d="M286.6,160.65l.64-3.82s10.38.51,11.78-3.75c1.17-3.55,7.53-27.89-13.61-35.53s-28.53,11.9-19.11,37.69c0,0,9.74,10,16,8.79,4.36-.81,4.26-3.38,4.26-3.38" transform="translate(74.45 5)"/><path class="cls-42" d="M287,158.07a30,30,0,0,1-11.16-2.32c-6-2.59-9.55-7-9.86-13.59a151.63,151.63,0,0,1,0-21.1c-5,6.75-5.14,19.44.25,34.18,0,0,9.74,10,16,8.79,4.36-.81,4.26-3.38,4.26-3.38Z" transform="translate(74.45 5)"/><path class="cls-45" d="M259.8,134a64.47,64.47,0,0,0,4.7,15.62s.84-11,3.29-12.61,7,1.78,9.2-6.76Z" transform="translate(74.45 5)"/><path class="cls-63" d="M260.23,126s-11.46,9.67-11.43,14.65c0,5.91,61.09-26,60.58-28s-8.67-3.41-23,.08A79.3,79.3,0,0,0,260.23,126" transform="translate(74.45 5)"/><path class="cls-46" d="M285.53,107.38c-2.72,2.91-6.3,5-9.7,7.25-5.65,3.68-12.11,7.32-18.7,9.06a30.94,30.94,0,0,0,.35,5.07c19.17-3.82,33.82-17.13,33.82-17.13a37.14,37.14,0,0,0-5.77-4.25" transform="translate(74.45 5)"/><path class="cls-61" d="M287,108.27c-5-3.31-13.43-7.27-20.94-2.8s-8.89,13.2-8.88,18.59c10.21-2.92,21.41-8.44,29.82-15.79" transform="translate(74.45 5)"/><path class="cls-45" d="M289.36,137.49a2.81,2.81,0,1,1-2.69-3.23,3,3,0,0,1,2.69,3.23" transform="translate(74.45 5)"/><path class="cls-45" d="M300.69,131.51a2.81,2.81,0,1,1-2.7-3.23,3,3,0,0,1,2.7,3.23" transform="translate(74.45 5)"/><path class="cls-65" d="M367.44,139.32l-69.24-5.8a2.09,2.09,0,0,1-.09-4.12l68.8-13.7Z" transform="translate(74.45 5)"/><path class="cls-66" d="M299.1,131c-.56.15-1.13.28-1.68.44a3.86,3.86,0,0,1-1,.14,2.08,2.08,0,0,0,1.81,2l69.24,5.8L367,119.44c-7.06,1.29-57.64,11-67.9,11.51" transform="translate(74.45 5)"/><path class="cls-67" d="M374.39,127.44c.16,6.79-2.52,12.36-6,12.44s-6.37-5.37-6.52-12.16,2.52-12.36,6-12.44,6.36,5.37,6.51,12.16" transform="translate(74.45 5)"/><path class="cls-45" d="M368.79,138.44c-2.09,0-4.51-4.37-4.65-10.77s2.08-10.92,4.17-11,4.51,4.37,4.65,10.77-2.08,10.92-4.17,11" transform="translate(74.45 5)"/><path class="cls-68" d="M353.82,151.9l-66.95-12.32a2.23,2.23,0,0,1,.12-4.41l67.56-8.47Z" transform="translate(74.45 5)"/><path class="cls-66" d="M285.43,136.19a2.13,2.13,0,0,0-.39,1.13,2.24,2.24,0,0,0,1.83,2.26l66.95,12.32.6-21c-23,1.35-46,4.1-69,5.26" transform="translate(74.45 5)"/><path class="cls-67" d="M361.88,139.62c-.21,7.24-3.36,13-7,12.93s-6.5-6.07-6.29-13.32,3.36-13,7-12.93,6.49,6.07,6.28,13.32" transform="translate(74.45 5)"/><path class="cls-45" d="M355.31,151c-2.22-.06-4.57-4.89-4.37-11.73s2.81-11.52,5-11.46,4.57,4.9,4.38,11.73-2.82,11.53-5.05,11.46" transform="translate(74.45 5)"/><path class="cls-69" d="M0,521.51V562H307.08s9.79-61.32,17.83-75.66,36.88-39.09,11.21-36.27S0,472.57,0,472.57Z" transform="translate(74.45 5)"/><path class="cls-70" d="M307.78,557.77a134.46,134.46,0,0,0-4.17-39.54c-2.62-9.73-7.33-19.25-15-26-7.39-6.48-17.09-9.94-26.68-11.47-25.65-4.1-52.83-1.66-78.65-.89-32.08,1-64.15,2.23-96.25,1.95-15.31-.13-30.63-.26-45.94-.6-8.37-.18-16.73-.6-25.09-1.1-5-.3-10.52-.8-15.19-2.76-.28-.12-.53-.25-.79-.38v85H307.08s.25-1.56.7-4.23" transform="translate(74.45 5)"/></g><g class="cls-8"><path class="cls-71" d="M48,403c2.32-.11,4.08-2.57.77-24.39-3.14-20.71-10-35.92-11.19-36s-.74,15.27,2.56,36.35c3.4,22.23,5.43,24.38,7.86,24" transform="translate(74.45 5)"/><path class="cls-71" d="M33.75,416.81c2.53-.92,4.22-4.43-4.09-29.31-8.14-24-20.27-41.14-21.59-41s3.64,18.85,12,43.79C28.49,416.1,31,418,33.75,416.81" transform="translate(74.45 5)"/><path class="cls-71" d="M91,383.8c-6.41-1.14-9.89-1.34-11.78-1,1.16-1.78,2.68-5.69,5-13.64,4.18-14,6-25.31,5.17-25.68s-6.82,8.82-11,22.59c-4.5,14.82-3.37,16.89-1.75,17.78a2.07,2.07,0,0,0,.56.23v0A32.43,32.43,0,0,0,70,387.7c-1.46.91-2.91,1.86-4.37,2.82a5.94,5.94,0,0,0-1.83.33C64.83,388,66,382.72,67.32,373c2.65-18.57,1.84-33,.72-33.35s-6.13,12.23-8.72,30.7c-2.81,20-1.19,22.55,1.06,23.25a3,3,0,0,0,.57.15c-3.38,2.41-6.74,5-10.05,7.69a2,2,0,0,0-.44.36A207.08,207.08,0,0,0,19.07,434.4c1.46-2.76.66-9.88-8.88-32.18-11.71-27-27.42-46.13-28.81-45.91S-12,378.42-.14,406.93c12,29.16,14.93,30.76,17.85,28.85a3.69,3.69,0,0,0,.66-.48A280.78,280.78,0,0,0,.92,460.79a4,4,0,0,0-.47.6C2,457.67.76,448.58-9.86,422.2c-13.41-32.87-31.73-56.22-33.35-56S-35.3,392.88-21.87,428c13.68,36.18,17.08,38,20.55,35.5A4.51,4.51,0,0,0,0,462.24a2.34,2.34,0,0,0-.09.24q-8.85,14.7-17.28,32.35c1.42-5.38-.67-17.27-14.1-49.41-17.43-41.3-41-71.3-42.84-71.1s11.93,35,28.87,80.15c17.5,46.53,21.73,47.87,25.86,44a8.06,8.06,0,0,0,1-1q-4.18,8.91-8.26,18.62c-4.11,9.86-6.83,19.1-6.22,19.7s4.32-7.63,8.35-17.51c2-4.85,4-9.53,6-14.09.3,5.95,5.63,14.29,31.73,26.86,30,13.41,56.25,8.43,56.65,5.81.4-2.91-22.48-16.22-51.29-29.9-20.7-10.29-29.14-13-33.06-11.64q6.95-14.91,14.2-27.68C.51,472,6,477.89,25.91,487.39c24.8,11.33,46,10.32,46.29,8.14.25-2.36-18.55-15.09-42.51-26.3-14.49-7-21.75-9.54-25.59-9.53q6.63-11,13.5-20.39c.34,3.59,4.37,8.87,22,19.73,20.87,12.66,39,15.49,39.34,13.6s-15.26-15.84-35.48-28c-12.54-7.67-18.68-10.38-21.87-10.55,4.19-5.45,8.45-10.5,12.78-15.2-.52,3.39.87,7.34,21,15.06,19,7.19,34.44,7.06,34.54,5.39s-14.08-11.23-32.66-18.24c-11.43-4.42-17-5.74-19.84-5.41q6.06-6.3,12.3-11.72c-.31,2.73,1.49,6,17.61,13.1s29.21,8.09,29.35,6.66-11.7-10.49-27.49-17.32c-8.7-3.81-13.4-5.26-16-5.37q4.44-3.67,9-7c0,2.57,2.28,5.32,17.32,9.41,15.3,4.11,27.13,2.93,27.18,1.57s-11.2-7.79-26.31-11.78c-6.41-1.75-10.54-2.54-13.21-2.7,1.06-.72,2.13-1.43,3.21-2.12,3.41-2.11,6.33-3.7,6.9-4.14a3.56,3.56,0,0,0-.16,1c-.12,2.21.85,4.37,13.65,6.63,12,2.08,21.24.28,21.28-.78s-9-5.22-20.91-7.28" transform="translate(74.45 5)"/><path class="cls-45" d="M142.61,497.06c0,.18-3.68.07-8.2.22-42.24,2.18-88.76,19.85-147,65.42-8.4,6.57-15.69,11.89-15.94,11s6.72-7.48,15.18-14c58.62-44.83,105.44-61.66,147.82-63.24,4.53-.12,8.16.35,8.1.56" transform="translate(74.45 5)"/><path class="cls-72" d="M142.61,497.06c0,.18-3.68.07-8.2.22-42.24,2.18-88.76,19.85-147,65.42-8.4,6.57-15.69,11.89-15.94,11s6.72-7.48,15.18-14c58.62-44.83,105.44-61.66,147.82-63.24,4.53-.12,8.16.35,8.1.56" transform="translate(74.45 5)"/><path class="cls-45" d="M152.59,482c-11.27,10.63-11.31,13-10.36,14.56s2.6,1.86,13.88-9c10.57-10,17.76-19,17.26-19.7s-10.3,4.26-20.78,14.12" transform="translate(74.45 5)"/><path class="cls-45" d="M133.93,476.12c-12.38,15.95-12.24,19-10.65,20.71s3.89,1.61,16.27-14.43c11.54-14.8,18-27.72,17.21-28.58s-11.41,7.57-22.83,22.3" transform="translate(74.45 5)"/><path class="cls-45" d="M113,474.15c-8.1,21-7.41,23.85-5.14,24.77,2.08,1.05,4.82-.21,12.8-20.78,7.58-19.53,9.2-36.13,8.19-36.8s-8.23,12.88-15.85,32.81" transform="translate(74.45 5)"/><path class="cls-45" d="M89.91,473.9c-5.5,26.63-4.25,29.54-1.28,29.86,2.65.46,5.86-1.75,11-27.47,4.88-24.89,2.87-45.77,1.67-46.33s-6.21,18.17-11.4,43.94" transform="translate(74.45 5)"/><path class="cls-45" d="M64.13,478.34c-4.1,31.26-2.34,34.11,1.15,33.91,3.13,0,6.67-3,10.16-32.86,3.26-29.25-.86-53.66-2.18-54.16S68,447.71,64.13,478.34" transform="translate(74.45 5)"/><path class="cls-45" d="M34.78,485.84c-6.11,38.2-4.06,41.47.19,41,3.8-.24,8.13-3.94,13.14-40.11,4.7-35.18.41-64.55-1.08-65.2s-6.42,27.12-12.25,64.29" transform="translate(74.45 5)"/><path class="cls-45" d="M1.2,497.07c-7.95,49.08-4.94,52.34.56,51.05,5-1.12,10.33-6.19,16.06-52,5.41-44.5-.14-82.25-1.83-83s-7,36.29-14.79,83.89" transform="translate(74.45 5)"/><path class="cls-45" d="M134.87,514.85c-12.07-12.07-11.6-15.11-10-17.39s3.88-3,15.8,9c11.12,11,17.71,22.13,17,23.3s-11.57-3.71-22.8-14.88" transform="translate(74.45 5)"/><path class="cls-45" d="M117.59,520.61c-11.16-15.16-10.34-18.37-8.41-20.56s4.34-2.6,15.32,12.23c10.31,13.78,16.08,27.49,15.24,28.7s-11.66-6.22-22.15-20.37" transform="translate(74.45 5)"/><path class="cls-45" d="M98.83,529.32c-13.9-17.05-12.82-21-10.58-23.67s5-3.26,18.6,13.45c12.63,15.31,20.22,30.59,19.27,32.06S111.77,545,98.83,529.32" transform="translate(74.45 5)"/><path class="cls-45" d="M72.67,543.29c-12.47-23-10.58-27.43-7.69-30.09s6-2.74,18.22,19.48c11.48,20.63,18.06,40.41,16.84,42s-15.56-10-27.37-31.36" transform="translate(74.45 5)"/><path class="cls-45" d="M46.73,561.1c-16.91-24.45-14.34-30.26-11-33.76,3.71-3.73,7-3.94,23.32,19.89,15.22,21.64,25.2,42,23.81,43.95-1.31,1.75-20.23-7.91-36.12-30.08" transform="translate(74.45 5)"/><path class="cls-45" d="M13.82,592.52C-6.73,562.6-2.29,554.64,2.08,550.15c5.16-5,8.86-5,28.36,24.13,18.2,26.2,31.44,49.12,29.64,51.45-1.65,2.07-26.88-6.64-46.26-33.21" transform="translate(74.45 5)"/><path class="cls-45" d="M154.73,503.59c-9.94-8.3-11.65-7.63-12.88-5.73s-1.44,4.22,8.55,12.54c9.36,7.77,18.29,10.8,18.85,9.9s-5.17-9-14.52-16.71" transform="translate(74.45 5)"/><path class="cls-71" d="M545.85,435.66c-2.32-.11-4.08-2.57-.77-24.39,3.14-20.71,10-35.92,11.19-36s.74,15.27-2.56,36.36c-3.4,22.22-5.43,24.37-7.86,24" transform="translate(74.45 5)"/><path class="cls-71" d="M560.14,449.43c-2.53-.92-4.22-4.43,4.09-29.31,8.14-24,20.27-41.14,21.59-41s-3.64,18.85-12,43.8c-8.47,25.83-11,27.74-13.73,26.54" transform="translate(74.45 5)"/><path class="cls-71" d="M502.87,416.42c6.41-1.14,9.89-1.34,11.78-1-1.16-1.78-2.68-5.69-5-13.64-4.18-14-6-25.31-5.17-25.68s6.82,8.83,11,22.59c4.5,14.82,3.37,16.89,1.75,17.78a1.79,1.79,0,0,1-.56.23,0,0,0,0,1,0,0,32.43,32.43,0,0,1,7.27,3.56c1.46.91,2.91,1.86,4.36,2.82a6,6,0,0,1,1.84.33c-1.08-2.81-2.22-8.13-3.57-17.89-2.65-18.57-1.84-33-.72-33.35s6.13,12.23,8.72,30.7c2.81,20,1.19,22.55-1.06,23.25a3,3,0,0,1-.57.15Q538,429.95,543,434a2.16,2.16,0,0,1,.43.36A207.08,207.08,0,0,1,574.82,467c-1.46-2.76-.66-9.88,8.88-32.18,11.71-27,27.42-46.13,28.81-45.91S605.88,411,594,439.55c-12,29.16-14.93,30.76-17.85,28.85a3.69,3.69,0,0,1-.66-.48A280.78,280.78,0,0,1,593,493.41a4,4,0,0,1,.47.6c-1.5-3.72-.31-12.81,10.3-39.19,13.42-32.87,31.74-56.22,33.36-56s-7.91,26.72-21.34,61.87c-13.68,36.18-17.08,38-20.55,35.5a4.51,4.51,0,0,1-1.33-1.29,2.44,2.44,0,0,1,.1.24q8.84,14.7,17.27,32.35c-1.42-5.38.67-17.27,14.1-49.41,17.43-41.3,41-71.3,42.84-71.1s-11.93,35-28.87,80.15c-17.5,46.54-21.73,47.87-25.86,44a7.35,7.35,0,0,1-1-1c2.78,6,5.53,12.14,8.25,18.62,4.11,9.86,6.83,19.1,6.22,19.7s-4.32-7.63-8.35-17.51c-2-4.85-4-9.53-6-14.09-.3,6-5.63,14.29-31.73,26.86-30,13.42-56.25,8.43-56.65,5.81-.4-2.91,22.48-16.22,51.29-29.9,20.7-10.29,29.14-13,33.06-11.64q-6.95-14.91-14.19-27.68c-1,4.35-6.54,10.28-26.45,19.78-24.8,11.34-46,10.32-46.29,8.14-.24-2.36,18.55-15.08,42.51-26.3,14.49-7,21.75-9.54,25.59-9.53q-6.63-11-13.5-20.39c-.33,3.59-4.36,8.87-22,19.73-20.87,12.66-39,15.49-39.34,13.61s15.26-15.85,35.48-28c12.55-7.67,18.68-10.38,21.87-10.55-4.19-5.45-8.45-10.5-12.78-15.2.53,3.39-.87,7.34-21,15.06-19,7.19-34.44,7.06-34.54,5.39s14.08-11.23,32.66-18.24c11.43-4.42,17-5.74,19.85-5.41q-6.07-6.3-12.31-11.72c.31,2.73-1.49,6-17.61,13.1s-29.21,8.09-29.35,6.66S509,445.82,524.77,439c8.7-3.81,13.4-5.26,16-5.37q-4.44-3.67-9-7c-.05,2.57-2.28,5.33-17.32,9.41-15.29,4.11-27.13,2.93-27.18,1.57s11.2-7.79,26.31-11.78c6.42-1.75,10.54-2.54,13.21-2.7-1.06-.72-2.13-1.43-3.21-2.12-3.41-2.11-6.33-3.69-6.9-4.14a3.56,3.56,0,0,1,.16,1c.12,2.21-.85,4.37-13.65,6.63-12,2.08-21.24.28-21.28-.78s9-5.22,20.91-7.28" transform="translate(74.45 5)"/><path class="cls-45" d="M451.28,529.68c0,.18,3.69.07,8.2.22,42.24,2.18,88.76,19.85,147,65.42,8.4,6.57,15.69,11.89,15.95,11s-6.73-7.48-15.19-14c-58.62-44.83-105.44-61.66-147.82-63.24-4.53-.12-8.16.35-8.1.56" transform="translate(74.45 5)"/><path class="cls-72" d="M451.28,529.68c0,.18,3.69.07,8.2.22,42.24,2.18,88.76,19.85,147,65.42,8.4,6.57,15.69,11.89,15.95,11s-6.73-7.48-15.19-14c-58.62-44.83-105.44-61.66-147.82-63.24-4.53-.12-8.16.35-8.1.56" transform="translate(74.45 5)"/><path class="cls-45" d="M441.3,514.59c11.27,10.62,11.32,13,10.36,14.55s-2.6,1.86-13.88-9c-10.57-10-17.76-19-17.26-19.7s10.3,4.26,20.78,14.13" transform="translate(74.45 5)"/><path class="cls-45" d="M460,508.75c12.38,15.94,12.25,19,10.65,20.7s-3.89,1.62-16.27-14.43c-11.53-14.8-18-27.72-17.21-28.58S448.54,494,460,508.75" transform="translate(74.45 5)"/><path class="cls-45" d="M480.89,506.77c8.1,21,7.42,23.85,5.14,24.77-2.08,1.05-4.82-.21-12.8-20.78-7.57-19.53-9.2-36.13-8.19-36.8s8.23,12.88,15.85,32.81" transform="translate(74.45 5)"/><path class="cls-45" d="M504,506.52c5.5,26.63,4.25,29.54,1.28,29.86-2.65.46-5.86-1.75-11-27.47-4.88-24.89-2.87-45.77-1.67-46.33s6.21,18.17,11.4,43.94" transform="translate(74.45 5)"/><path class="cls-45" d="M529.76,511c4.1,31.26,2.34,34.11-1.15,33.91-3.13,0-6.66-3-10.16-32.86-3.26-29.25.86-53.65,2.18-54.16s5.24,22.48,9.13,53.11" transform="translate(74.45 5)"/><path class="cls-45" d="M559.11,518.46c6.11,38.2,4.06,41.47-.19,41-3.8-.24-8.13-3.94-13.14-40.11-4.7-35.18-.41-64.55,1.08-65.2s6.42,27.12,12.25,64.29" transform="translate(74.45 5)"/><path class="cls-45" d="M459,547.47c12.07-12.07,11.6-15.11,10-17.39s-3.88-3-15.8,9c-11.12,11-17.71,22.13-17,23.3s11.58-3.7,22.8-14.88" transform="translate(74.45 5)"/><path class="cls-45" d="M476.3,553.23c11.17-15.16,10.34-18.37,8.41-20.56s-4.34-2.6-15.32,12.23c-10.31,13.78-16.08,27.49-15.24,28.7s11.66-6.22,22.15-20.37" transform="translate(74.45 5)"/><path class="cls-45" d="M495.06,561.94c13.9-17.05,12.82-21,10.58-23.67s-5-3.26-18.6,13.45c-12.63,15.31-20.22,30.59-19.27,32.06s14.35-6.15,27.29-21.84" transform="translate(74.45 5)"/><path class="cls-45" d="M521.22,575.91c12.47-23,10.58-27.43,7.69-30.09s-6-2.73-18.22,19.48c-11.48,20.63-18.06,40.41-16.84,42s15.56-10,27.37-31.36" transform="translate(74.45 5)"/><path class="cls-45" d="M547.16,593.72c16.92-24.45,14.34-30.26,11-33.76-3.71-3.73-7-3.94-23.32,19.89-15.21,21.64-25.2,42-23.81,43.95,1.31,1.75,20.23-7.91,36.12-30.08" transform="translate(74.45 5)"/><path class="cls-45" d="M439.16,536.21c9.94-8.3,11.66-7.63,12.88-5.73s1.44,4.22-8.55,12.54c-9.36,7.77-18.29,10.8-18.85,9.9s5.17-9,14.52-16.71" transform="translate(74.45 5)"/><path class="cls-45" d="M181-5H165.41a25.75,25.75,0,0,0,2.94,15c5.25,9.61,14.56,13.83,15.28,15s.93,1.35.93.12,2.63-13.3-.5-23.21A24.86,24.86,0,0,0,180.58-5" transform="translate(74.45 5)"/><path class="cls-45" d="M-4-5V32.64a34.72,34.72,0,0,0,5.05,7.14c4.05,4.44,11.29,8.58,12,10.25s1.11.92,1,.36c-.07-.27-.19-.89-.34-1.85l.14-.19c.55-.76,8-6.58,10.6-11,3.68-6.21,3.77-7.73,5.05-11.93.77-.07-2.58,8.72,2.73,18.43s14.56,13.82,15.28,15,.93,1.34.93.12S51.09,45.7,48,35.8C46.33,30.63,42.9,26.07,37.89,22c3.24,1.59,6.75,3.69,12.66,4.81a54.11,54.11,0,0,0,9.53.58,8.54,8.54,0,0,1,.07.92c0,1.94.39,4.55.35,5.17s.33.38.88-.38c.31-.44,2.88-2.53,5.51-5.05.94.38.84-.16.51-.5A29.76,29.76,0,0,0,72,22.13c.09-.15.16-.28.25-.42,1.42,2.49,2.58,4.18,2.76,4.6.49,1.12.62.87.8-.48a15.81,15.81,0,0,1,1.7-2.95,24.91,24.91,0,0,0,2.27,5.75C85,38.23,94.32,42.46,95,43.62S96,45,96,43.74s2.64-13.3-.49-23.21c-1.63-5.17-5.06-9.73-10.08-13.81,3.25,1.59,6.75,3.69,12.66,4.81,4.53.86,10.43.46,13.67.62-.22,9.16,3.63,16.34,3.52,17.55s-.07,1.63.67.65a87.4,87.4,0,0,0,8.5-9.61c.1.17.17.3.21.38.49,1.12.61.87.8-.48s6.82-8.78,7.89-19.46a34.05,34.05,0,0,0,3.6,4.67C141,10.29,148.2,14.44,149,16.1s1.1.93,1,.37c-.07-.27-.19-.9-.34-1.85l.15-.19c.54-.76,8-6.59,10.59-10.95a36.11,36.11,0,0,0,4-8.48Z" transform="translate(74.45 5)"/><path class="cls-45" d="M213-5H202c2.12,2.93,4.46,4.56,5.27,5.62,1.17,1.55,3.13,3.34,3.47,3.85s.5.09.46-.85c0-.59.88-4.53,1.37-8.62" transform="translate(74.45 5)"/><path class="cls-45" d="M363.14-5c-3.75,7.89-3.44,15.54-4,16.54-.7,1.17-.77,1.45.32.88s13-3.8,20.36-11.14A24.73,24.73,0,0,0,384.3-5Z" transform="translate(74.45 5)"/><path class="cls-45" d="M567-5H388a34,34,0,0,0,1,4.42c1.73,5.76,6.46,12.63,6.42,14.46s.59,1.31.72.75c.06-.27.21-.89.49-1.81l.22-.11c.82-.45,10.07-2.47,14.29-5.29,6-4,6.75-5.34,9.72-8.57.72.28-6.1,6.75-5.52,17.8s7.14,18.76,7.29,20.12.25,1.62.78.51,8.13-10.85,9.6-21.14c.77-5.36-.35-11-3.1-16.81,2.23,2.84,4.48,6.26,9.32,9.82a53.6,53.6,0,0,0,8.35,4.65,5.7,5.7,0,0,1-.34.86c-.87,1.73-1.61,4.28-1.92,4.81s.14.48,1,0c.47-.26,3.69-1,7.15-2.17.68.75.83.22.68-.22a30.15,30.15,0,0,0,6.46-2.9c.15-.1.28-.18.41-.28.21,2.87.52,4.89.5,5.35,0,1.22.18,1.05.93-.09a15.47,15.47,0,0,1,2.81-1.92,24.63,24.63,0,0,0-.44,6.16c.57,10.93,7.14,18.77,7.28,20.13s.26,1.62.79.51,8.13-10.85,9.6-21.14c.76-5.36-.36-11-3.11-16.81,2.24,2.84,4.48,6.26,9.33,9.82,3.7,2.73,9.2,4.92,12.06,6.47-4.17,8.17-3.81,16.31-4.43,17.35s-.77,1.44.32.88a88.65,88.65,0,0,0,11.82-5c0,.2,0,.35,0,.44,0,1.22.18,1,.93-.1S519.4,31.05,525,21.88a35.37,35.37,0,0,0,1.23,5.77c1.73,5.76,6.46,12.62,6.42,14.46s.59,1.31.72.75c.06-.28.21-.89.5-1.82l.21-.11c.82-.44,10.07-2.46,14.29-5.28,6-4,6.74-5.34,9.72-8.57.72.27-6.1,6.75-5.52,17.79s7.14,18.77,7.29,20.13.25,1.61.78.51A89.69,89.69,0,0,0,567,54.59Z" transform="translate(74.45 5)"/></g><rect class="cls-7" x="74.45" y="5" width="562" height="562"/><rect class="cls-7" x="74.45" y="5" width="562" height="562"/></g></g></svg>