<svg xmlns="http://www.w3.org/2000/svg" xmlns:xlink="http://www.w3.org/1999/xlink" viewBox="0 0 921.93 1023.21"><defs><style>.cls-1{fill:none;}.cls-2{fill:#615f5f;}.cls-3{clip-path:url(#clip-path);}.cls-4{fill:#7c9499;}.cls-5{fill:#f1f1f1;}.cls-6{fill:#968a7d;}.cls-7{fill:#f5f5f5;}.cls-8{fill:#263239;}.cls-9{fill:#3f4f45;}.cls-10{fill:#2d3a31;}.cls-11{fill:#455a64;}.cls-12{fill:#353535;}.cls-13{clip-path:url(#clip-path-9);}.cls-14{opacity:0.4;}.cls-15{clip-path:url(#clip-path-10);}.cls-16{fill:#fff;}.cls-17{opacity:0.3;}.cls-18{clip-path:url(#clip-path-11);}.cls-19{fill:#8c7b66;}.cls-20{fill:#67594d;}.cls-21{fill:#20090a;}.cls-22,.cls-46{fill:#d9caad;}.cls-23{fill:#e9505b;}.cls-24{fill:#f8bc9e;}.cls-25{opacity:0.2;}.cls-26{clip-path:url(#clip-path-12);}.cls-27{clip-path:url(#clip-path-13);}.cls-28{fill:#202b30;}.cls-29,.cls-40{fill:#494037;}.cls-30{fill:#39332c;}.cls-31{clip-path:url(#clip-path-14);}.cls-32{fill:#dac58b;}.cls-33{fill:#3c160e;}.cls-34{fill:#8c7b65;}.cls-35{fill:#d9c58b;}.cls-36{fill:#f2ede7;}.cls-37{fill:#67594b;}.cls-38,.cls-40,.cls-46{font-size:35.54px;font-family:MyriadPro-Regular, Myriad Pro;}.cls-38{fill:#1d1d1b;}.cls-39{fill:#bcae96;}.cls-41{letter-spacing:0em;}.cls-42{letter-spacing:0.02em;}.cls-43{letter-spacing:0em;}.cls-44{fill:#aa996f;}.cls-45{letter-spacing:0em;}.cls-47{letter-spacing:-0.01em;}</style><clipPath id="clip-path" transform="translate(2.63)"><rect class="cls-1" x="165.52" y="176.24" width="561.93" height="561.93"/></clipPath><clipPath id="clip-path-9" transform="translate(2.63)"><rect class="cls-2" x="357.23" y="688.43" width="23.36" height="2.98"/></clipPath><clipPath id="clip-path-10" transform="translate(2.63)"><rect class="cls-1" x="440.02" y="687.32" width="36.97" height="3.74"/></clipPath><clipPath id="clip-path-11" transform="translate(2.63)"><rect class="cls-1" x="440.02" y="679.61" width="22.08" height="2.78"/></clipPath><clipPath id="clip-path-12" transform="translate(2.63)"><rect class="cls-1" x="405.01" y="283.38" width="20.82" height="9.89"/></clipPath><clipPath id="clip-path-13" transform="translate(2.63)"><rect class="cls-1" x="443.06" y="377.09" width="17.66" height="52.54"/></clipPath><clipPath id="clip-path-14" transform="translate(2.63)"><rect class="cls-1" x="-2.63" y="526.32" width="17.66" height="52.54"/></clipPath></defs><g id="Capa_2" data-name="Capa 2"><g id="Edit"><g class="cls-3"><g class="cls-3"><g class="cls-3"><path class="cls-4" d="M590.45,223h48s-4.24-7.72-16.59-6.6c-11.79,1.07-12.39-3.8-18.39-4.4s-11,4-13,11" transform="translate(2.63)"/><path class="cls-4" d="M346.17,257.15h38.3s-3.39-6.17-13.25-5.27c-9.41.86-9.89-3-14.68-3.51s-8.77,3.19-10.37,8.78" transform="translate(2.63)"/><path class="cls-4" d="M338.26,198.33h70s-6.19-11.26-24.22-9.62c-17.21,1.56-18.08-5.55-26.83-6.42s-16.05,5.83-19,16" transform="translate(2.63)"/><path class="cls-4" d="M233.26,234.27H303.2S297,223,279,224.66c-17.19,1.56-18.07-5.54-26.81-6.41s-16,5.82-18.94,16" transform="translate(2.63)"/><path class="cls-5" d="M165.76,290.28c26.94-12.41,59.58-10.92,85.37,3.73a95.42,95.42,0,0,1,47,71.66c23.2-12.37,54.34-7.48,72.63,11.41s22.17,50.17,9.06,73c30.64-9.9,66-3.51,91.3,16.46,15.38-34.35,57.32-54.34,93.69-44.66a59.5,59.5,0,0,1,68-76.33c-5-24.39,4.55-51.23,23.92-66.87s75.6-33.68,70.41-9.32c-1.93,9.05,0,206.78,0,206.78l-561.6-2.33Z" transform="translate(2.63)"/><polygon class="cls-6" points="548.46 474.53 582.93 442.64 633.53 422.96 658.83 377.38 730.08 327.29 730.08 474.53 548.46 474.53"/><path class="cls-6" d="M165.52,337.07c0,.93,37.95,10.3,37.95,10.3l60.86,55.24H307.4l43.07,71.16h-185Z" transform="translate(2.63)"/><polygon class="cls-7" points="730.08 422.51 681.73 439.68 668.06 453.35 645.04 453.35 586.77 493.62 729.95 493.62 730.08 422.51"/></g><g class="cls-3"><path class="cls-8" d="M701.74,680.26s-.23,0-.68-.1l-2-.33-7.74-1.35-29.47-5.2h0l0,0c-8.32-9.89-18.65-22.19-30.51-36.31l.16.07-39.52,0,.2-.1-19.06,25.32-.06.07-.09,0L553,667l.12-.06-26.79,24.29-.08.08h-57l-192.84-.08-58.44-.09L202,691.11l-4.13,0-1.41,0,1.41,0,4.13,0,15.89,0,58.44-.09,192.84-.09h56.91l-.19.07,26.82-24.28,0,0h.07l19.92-4.68-.15.1c6.63-8.79,13-17.27,19.09-25.3l.07-.1h.12l39.52,0h.1l.07.08c11.82,14.16,22.12,26.48,30.41,36.4l-.09,0,29.45,5.34,7.72,1.43,2,.37.67.14" transform="translate(2.63)"/></g><g class="cls-3"><path class="cls-9" d="M288.67,689.08c21.77-14.53,27.09-42,26.62-66.82-.08-4.15.45-8.5-1.49-12.16s-6.55-6.21-10.33-4.52c-3.13,1.4-4.55,4.95-6.33,7.88a24.39,24.39,0,0,1-10,9.12c-2.69,1.33-6,2.12-8.62.64-3.58-2-3.93-7-3.84-11.07q.26-11.5.5-23c.09-4.12.17-8.32-1.07-12.24s-4-7.6-8-8.75-8.89,1-9.79,5c-.37,1.67-.05,3.42-.19,5.12s-1,3.59-2.63,4-3.32-.74-4.55-2c-4.24-4.22-7.08-9.61-9.72-15s-5.21-10.85-9-15.44-9.18-8.26-15.14-8.68-12.38,3.12-14,8.88,1.73,11.72,5.39,16.47a92.54,92.54,0,0,0,19.09,18.51c1.3.94,2.71,2,3.19,3.49.86,2.76-1.81,5.44-4.57,6.3-3.13,1-6.49.61-9.75.94s-6.8,1.69-8.08,4.7c-1.77,4.18,1.73,8.65,5.19,11.58A79.9,79.9,0,0,0,234.93,626c3,1.15,6.26,2.17,8.7,4.33s3.88,5.89,2.34,8.76-5.39,3.75-8.59,3.12-6-2.4-9.1-3.59c-5.69-2.22-13.1-1.94-16.84,2.89-2.47,3.18-2.75,7.65-1.59,11.49s3.58,7.19,6.16,10.27c9,10.77,20.64,19.5,33.86,24.25s25.52,6.16,38.8,1.59" transform="translate(2.63)"/><path class="cls-8" d="M287,689.56c-3.51-12.56-13.1-42.1-18.81-56l-4.27-10.27c-1.41-3.37-2.8-6.71-4.37-9.89a185.71,185.71,0,0,0-10.09-17.79c-3.48-5.5-7-10.6-10.31-15.34s-6.51-9.1-9.59-12.95a147,147,0,0,0-15.86-17.09c-2-1.87-3.64-3.27-4.75-4.2L207.64,545c-.28-.23-.44-.34-.44-.34s.13.14.4.39l1.23,1.1c1.08,1,2.67,2.39,4.67,4.29a154.34,154.34,0,0,1,15.68,17.18c3,3.86,6.2,8.23,9.51,13s6.78,9.85,10.25,15.35a187,187,0,0,1,10,17.74c1.56,3.17,2.94,6.49,4.35,9.87l4.27,10.27c5.7,13.88,15.3,43.4,18.83,55.92" transform="translate(2.63)"/><path class="cls-8" d="M259.35,613.33a9.49,9.49,0,0,0,.41-1.75c.22-1.14.51-2.79.82-4.83.64-4.09,1.34-9.77,2.1-16s1.55-11.91,2.28-16c.35-2,.66-3.67.89-4.81a9.69,9.69,0,0,0,.29-1.77,10.59,10.59,0,0,0-.52,1.72c-.3,1.12-.68,2.75-1.09,4.78-.85,4.06-1.71,9.72-2.47,16s-1.41,11.82-1.91,16c-.26,2-.47,3.59-.63,4.85a10.27,10.27,0,0,0-.17,1.79" transform="translate(2.63)"/><path class="cls-8" d="M205.91,602.65a2.08,2.08,0,0,0,.55.09l1.58.16c1.38.14,3.37.32,5.82.63,4.9.59,11.64,1.64,19,3.12s14,3.15,18.77,4.49c2.38.65,4.29,1.23,5.62,1.63l1.52.45a2,2,0,0,0,.55.11,1.84,1.84,0,0,0-.51-.23l-1.49-.56c-1.3-.47-3.2-1.11-5.57-1.82-4.73-1.45-11.36-3.17-18.77-4.67a192.55,192.55,0,0,0-19.11-2.95c-2.46-.26-4.46-.38-5.84-.44l-1.59,0c-.37,0-.56,0-.56,0" transform="translate(2.63)"/><path class="cls-8" d="M281.78,672.46a3,3,0,0,0,.37-.64l.93-1.91c.81-1.65,1.92-4.08,3.25-7.09,2.67-6,6.1-14.46,9.76-23.82s7-17.81,9.59-23.87l3.06-7.17.83-2a3.33,3.33,0,0,0,.25-.69,3.3,3.3,0,0,0-.36.64l-.94,1.91c-.81,1.65-1.91,4.08-3.24,7.09-2.67,6-6.1,14.46-9.77,23.82s-7,17.81-9.58,23.87c-1.27,3-2.31,5.41-3.07,7.17l-.83,2a3.33,3.33,0,0,0-.25.69" transform="translate(2.63)"/><path class="cls-8" d="M210.91,648.75a4.53,4.53,0,0,0,.71.28l2.06.7,7.6,2.53c6.41,2.15,15.23,5.22,25,8.64s18.59,6.42,25,8.46c3.23,1,5.84,1.83,7.66,2.35l2.1.59a3.2,3.2,0,0,0,.74.16,3.66,3.66,0,0,0-.7-.28l-2.06-.7-7.6-2.53c-6.41-2.15-15.23-5.22-25-8.64s-18.59-6.43-25-8.46c-3.23-1-5.85-1.83-7.67-2.35l-2.09-.59a2.59,2.59,0,0,0-.75-.16" transform="translate(2.63)"/><path class="cls-9" d="M510.76,652.78c1.81,2.53,5.26,1.65,6.86.08s2.25-3.83,2.84-6c1.37-4.93,2.74-10.09,1.64-15.08a8.25,8.25,0,0,0-2-4.07,4.35,4.35,0,0,0-4.15-1.34c-1.75.47-2.82,2.2-3.58,3.83a35.7,35.7,0,0,0-3.4,15.44,12.43,12.43,0,0,0,1.75,7.12" transform="translate(2.63)"/><path class="cls-9" d="M517.57,665.61a15.48,15.48,0,0,1,9.57-1.26,8,8,0,0,1,4.76,2.07c1.19,1.3,1.44,3.59.09,4.73a4.53,4.53,0,0,1-3,.79c-2.53,0-5.35-.43-7.36,1.12-1.14.88-1.9,2.33-3.28,2.77a3.26,3.26,0,0,1-3.6-1.56,5.59,5.59,0,0,1-.45-4.12,6.28,6.28,0,0,1,3.25-4.54" transform="translate(2.63)"/><path class="cls-9" d="M505.9,656.48a9.28,9.28,0,0,0,1.36-8.54,16.48,16.48,0,0,0-5.12-7.28,27.37,27.37,0,0,0-9.1-5.25,9.52,9.52,0,0,0-4.07-.65,4.25,4.25,0,0,0-3.4,2.1c-.93,1.82,0,4,1,5.8a67.75,67.75,0,0,0,6,9c1.81,2.28,3.87,4.52,6.59,5.53s5.54.87,7-1" transform="translate(2.63)"/><path class="cls-8" d="M511,691.2a6.23,6.23,0,0,0,.15-1.16c.07-.84.17-1.9.28-3.16a44.78,44.78,0,0,1,.66-4.64,36,36,0,0,1,1.63-5.49,20.15,20.15,0,0,1,2.75-5,10.5,10.5,0,0,1,3.5-3,9.86,9.86,0,0,1,3-.95,6.34,6.34,0,0,0,1.15-.18,5.26,5.26,0,0,0-1.17,0,9,9,0,0,0-3.09.84,10.37,10.37,0,0,0-3.7,3,19.6,19.6,0,0,0-2.84,5.07,33.34,33.34,0,0,0-1.62,5.57,39.65,39.65,0,0,0-.57,4.7c-.09,1.34-.12,2.43-.13,3.18a5.38,5.38,0,0,0,0,1.17" transform="translate(2.63)"/><path class="cls-8" d="M511.2,688.77a2,2,0,0,0,0-.54c0-.41,0-.91,0-1.54,0-1.33,0-3.26,0-5.64.08-4.76.42-11.34,1.14-18.58s1.73-13.75,2.65-18.42c.21-1.17.43-2.23.64-3.15s.37-1.73.53-2.37l.34-1.5a1.73,1.73,0,0,0,.09-.53,2.64,2.64,0,0,0-.18.51c-.11.39-.26.87-.43,1.47s-.39,1.44-.61,2.36-.48,2-.71,3.14a173.27,173.27,0,0,0-2.79,18.44c-.72,7.25-1,13.85-1,18.63,0,2.38.06,4.32.13,5.65.05.62.08,1.13.11,1.53a3,3,0,0,0,.07.54" transform="translate(2.63)"/><path class="cls-8" d="M511.11,676.05a8.6,8.6,0,0,0,0-1.61c-.07-1-.23-2.52-.54-4.34a59.61,59.61,0,0,0-4.19-13.78,39.93,39.93,0,0,0-7.9-12,19.26,19.26,0,0,0-1.84-1.68c-.28-.23-.53-.47-.79-.65l-.71-.49a10.37,10.37,0,0,0-1.36-.85,50.58,50.58,0,0,1,4.46,3.91,42.08,42.08,0,0,1,7.7,12,58.91,58.91,0,0,1,2.73,7.4,62,62,0,0,1,1.57,6.25c.35,1.81.55,3.28.68,4.3a10.34,10.34,0,0,0,.21,1.59" transform="translate(2.63)"/><path class="cls-10" d="M287.92,669c-8.95-7.36-10.13-19.81-8.89-30.82.21-1.84.16-3.79,1.16-5.34s3.14-2.49,4.72-1.59c1.32.75,1.79,2.39,2.46,3.77a10.85,10.85,0,0,0,4,4.47,4.15,4.15,0,0,0,3.76.64c1.66-.75,2-2.94,2.15-4.77q.38-5.13.74-10.25a17.48,17.48,0,0,1,1-5.4,5.7,5.7,0,0,1,3.88-3.56,3.44,3.44,0,0,1,4.08,2.64,16.05,16.05,0,0,1-.12,2.29,1.94,1.94,0,0,0,1,1.9,2.23,2.23,0,0,0,2.08-.68,24.57,24.57,0,0,0,4.9-6.26,34,34,0,0,1,4.61-6.5,10,10,0,0,1,7-3.24c2.64.06,5.31,1.9,5.77,4.53s-1.25,5.14-3.06,7.1A41,41,0,0,1,320,625.4a3.45,3.45,0,0,0-1.55,1.42c-.49,1.19.57,2.5,1.74,3a20.78,20.78,0,0,0,4.24.82c1.42.28,2.92,1,3.35,2.43.6,1.93-1.12,3.77-2.76,4.93a35.18,35.18,0,0,1-10.84,5.18,11.5,11.5,0,0,0-4,1.57,3.38,3.38,0,0,0-1.39,3.79,3.44,3.44,0,0,0,3.64,1.74,23.87,23.87,0,0,0,4.14-1.22c2.59-.75,5.83-.32,7.27,2a5.82,5.82,0,0,1,.22,5.18,13.33,13.33,0,0,1-3.14,4.31A35.26,35.26,0,0,1,305,669.91c-6,1.57-11.46,1.69-17.1-.89" transform="translate(2.63)"/><path class="cls-8" d="M329.73,608.13l-.19.16-.58.44c-.52.39-1.28,1-2.23,1.72a68.47,68.47,0,0,0-7.59,7c-1.5,1.6-3.07,3.41-4.72,5.38s-3.39,4.11-5.14,6.41a84.39,84.39,0,0,0-5.14,7.48c-.81,1.34-1.56,2.76-2.32,4.21s-1.52,2.9-2.3,4.39a167.58,167.58,0,0,0-7.92,17.12,83,83,0,0,0-4.24,14.8,59.76,59.76,0,0,0-1,10.33c0,1.23,0,2.19.05,2.83,0,.31,0,.55,0,.74v.25a.79.79,0,0,1,0-.25c0-.18,0-.43-.06-.73-.06-.65-.1-1.6-.12-2.84a56.53,56.53,0,0,1,.88-10.37,80.3,80.3,0,0,1,4.18-14.87,163,163,0,0,1,7.91-17.17l2.31-4.4c.76-1.43,1.51-2.86,2.33-4.22a81.3,81.3,0,0,1,5.18-7.49c1.76-2.31,3.51-4.43,5.17-6.4s3.24-3.78,4.75-5.36a64.32,64.32,0,0,1,7.69-6.94c1-.75,1.74-1.31,2.27-1.67l.6-.42.21-.13" transform="translate(2.63)"/><path class="cls-8" d="M304,636.54a3.55,3.55,0,0,1-.12-.8c-.06-.51-.11-1.26-.17-2.18-.12-1.85-.19-4.4-.26-7.21s-.18-5.37-.32-7.2c-.07-.92-.13-1.67-.18-2.18a3.72,3.72,0,0,1,0-.8,3.82,3.82,0,0,1,.17.78c.09.51.19,1.25.29,2.17.2,1.84.35,4.4.42,7.22s.12,5.29.16,7.21c0,.87,0,1.6.06,2.18a3.64,3.64,0,0,1,0,.81" transform="translate(2.63)"/><path class="cls-8" d="M327.87,634a6.51,6.51,0,0,1-.95,0c-.61,0-1.49,0-2.58.05-2.18.06-5.18.26-8.48.61s-6.28.82-8.43,1.21c-1.07.19-1.94.37-2.53.49a5.3,5.3,0,0,1-.94.15,5.44,5.44,0,0,1,.91-.28c.59-.16,1.45-.38,2.52-.59,2.14-.46,5.12-.95,8.43-1.32a82.26,82.26,0,0,1,8.52-.51c1.09,0,2,0,2.58,0a5.35,5.35,0,0,1,.95.1" transform="translate(2.63)"/><path class="cls-8" d="M291.64,661.92s-.06-.1-.14-.3-.21-.54-.34-.89c-.29-.77-.68-1.89-1.14-3.29-.92-2.78-2.08-6.68-3.29-11s-2.34-8.21-3.21-11c-.42-1.36-.77-2.48-1-3.31-.11-.36-.2-.66-.28-.91a1.14,1.14,0,0,1-.07-.32,1.34,1.34,0,0,1,.14.3l.33.88c.29.77.68,1.9,1.14,3.29.93,2.79,2.08,6.68,3.3,11s2.34,8.21,3.2,11c.43,1.36.78,2.48,1,3.32.11.36.21.66.28.9a1.45,1.45,0,0,1,.08.33" transform="translate(2.63)"/><path class="cls-8" d="M323.74,654.29l-.32.1-.93.23-3.44.83c-2.91.69-6.9,1.7-11.32,2.82s-8.43,2.09-11.35,2.72c-1.46.32-2.64.57-3.46.72l-.95.17-.33,0s.1,0,.32-.11l.93-.23,3.44-.82c2.9-.7,6.9-1.71,11.32-2.83s8.43-2.08,11.35-2.72c1.45-.32,2.64-.56,3.46-.72l1-.17a1.36,1.36,0,0,1,.33,0" transform="translate(2.63)"/></g><g class="cls-3"><path class="cls-8" d="M567.19,492.63l.41,0,1.2,0,4.61-.05,17-.1,55.95-.08,56,.08,17,.1,4.61.05,1.2,0,.41,0-.41,0-1.2,0-4.61.05-17,.1-56,.08-55.95-.08-17-.1-4.61-.05-1.2,0-.41,0" transform="translate(2.63)"/><polygon class="cls-11" points="617.89 492.48 617.89 474.42 629.13 464.88 647.87 464.88 657.06 473.4 657.06 492.23 617.89 492.48"/><rect class="cls-8" x="621.38" y="476.09" width="1.33" height="3.42"/><rect class="cls-8" x="646.54" y="475.56" width="1.33" height="3.42"/><rect class="cls-8" x="653.6" y="479.16" width="1.33" height="3.42"/><polygon class="cls-8" points="617.89 474.42 641.59 474.42 647.87 464.88 629.13 464.88 617.89 474.42"/><polygon class="cls-11" points="668.9 492.53 668.9 481.61 675.71 475.84 687.04 475.84 692.6 480.99 692.6 492.39 668.9 492.53"/><rect class="cls-8" x="671.02" y="482.62" width="0.8" height="2.07"/><rect class="cls-8" x="686.23" y="482.3" width="0.8" height="2.07"/><rect class="cls-8" x="690.5" y="484.48" width="0.8" height="2.07"/><polygon class="cls-8" points="668.9 481.61 683.24 481.61 687.04 475.84 675.71 475.84 668.9 481.61"/><path class="cls-11" d="M651.92,497.21c0,.16-8.47.29-18.93.29s-18.94-.13-18.94-.29,8.48-.29,18.94-.29,18.93.13,18.93.29" transform="translate(2.63)"/><path class="cls-11" d="M643.11,501.33a72.8,72.8,0,0,1-9.15.16,70.82,70.82,0,0,1-9.14-.43,146.87,146.87,0,0,1,18.29.27" transform="translate(2.63)"/><path class="cls-11" d="M693.39,497.54c0,.16-6.57.29-14.69.29S664,497.7,664,497.54s6.57-.29,14.69-.29,14.69.13,14.69.29" transform="translate(2.63)"/></g><g class="cls-3"><path class="cls-8" d="M574.14,239.94c0,.07-1.06.07-3,.28a28.65,28.65,0,0,0-7.83,2.15,31.56,31.56,0,0,0-5,2.67,33.19,33.19,0,0,0-5,4.15A28.66,28.66,0,0,0,546.14,262l-.2.79-.35-.75c-.27-.58-.56-1.21-.86-1.84a30.18,30.18,0,0,0-4.55-6.65,33.28,33.28,0,0,0-17.31-10,31.12,31.12,0,0,0-8.57-.71c-1,0-1.81.19-2.34.23a4.28,4.28,0,0,1-.83.06,4.47,4.47,0,0,1,.81-.18c.53-.07,1.31-.27,2.34-.34a29.93,29.93,0,0,1,8.68.54,32.68,32.68,0,0,1,11.85,5,32,32,0,0,1,5.79,5,30.32,30.32,0,0,1,4.66,6.77l.87,1.88-.55,0a28.71,28.71,0,0,1,7.46-13,32.5,32.5,0,0,1,5.08-4.18,32.15,32.15,0,0,1,5.06-2.65,27,27,0,0,1,8-2,17.54,17.54,0,0,1,2.22-.09,4.5,4.5,0,0,1,.77,0" transform="translate(2.63)"/><path class="cls-8" d="M581.62,271.65a40.64,40.64,0,0,0-3,4.78,24.68,24.68,0,0,0-2.55,13.13c.05.43.09.84.14,1.23l.11,1-.63-.77c-3.21-3.91-6.07-7.44-8.1-10l-2.38-3a7.13,7.13,0,0,1-.81-1.15,6,6,0,0,1,1,1l2.52,2.92c2.12,2.49,5,6,8.24,9.88l-.51.23c0-.4-.1-.83-.15-1.26a24,24,0,0,1,2.77-13.38,22,22,0,0,1,2.32-3.48,6.71,6.71,0,0,1,1.06-1.11" transform="translate(2.63)"/></g><polygon class="cls-12" points="365.02 679.08 359.83 691.15 383.05 690.88 383.54 678.58 365.02 679.08"/><g class="cls-3"><path class="cls-8" d="M380.59,688.79a21.58,21.58,0,0,1-3.25.16c-2,0-4.79,0-7.85,0l-7.84-.16a22.17,22.17,0,0,1-3.24-.17,23.39,23.39,0,0,1,3.25-.16c2,0,4.78,0,7.85,0l7.83.16a23.39,23.39,0,0,1,3.25.16" transform="translate(2.63)"/><path class="cls-5" d="M370.91,678.82c.21,0,.25,2.2.1,4.9s-.43,4.86-.64,4.85-.24-2.2-.09-4.89.43-4.87.63-4.86" transform="translate(2.63)"/><rect class="cls-2" x="359.86" y="688.43" width="23.36" height="2.98"/><g class="cls-13"><polyline class="cls-2" points="359.87 691.4 383.07 690.63 383.22 688.43 361.03 688.62 359.86 691.14"/></g><path class="cls-12" d="M462.12,684.91l0-11.7-21.93-.08L440,690.25l1.36.1c6.05.35,30.79,1.39,34.84.18,4.51-1.35-14.1-5.62-14.1-5.62" transform="translate(2.63)"/><g class="cls-14"><g class="cls-15"><path class="cls-16" d="M471.21,687.32s6.53,1.91,5.71,3-25.86,1-36.9,0l0-.49,29.2.38s.68-2.77,1.95-2.82" transform="translate(2.63)"/></g></g><path class="cls-8" d="M439.72,689.75l.37,0,1.09.07,4,.19c3.37.14,8,.26,13.16.29s9.79-.06,13.16-.16l4-.15,1.08-.06.38,0a1.59,1.59,0,0,0-.38,0h-1.09l-4,.06c-3.37.06-8,.11-13.16.08s-9.79-.12-13.15-.21l-4-.1-1.08,0h-.38" transform="translate(2.63)"/><path class="cls-8" d="M469.26,690.48a8.55,8.55,0,0,1,.75-1.9,9.46,9.46,0,0,1,1.36-1.52,3.53,3.53,0,0,0-2.11,3.42" transform="translate(2.63)"/><path class="cls-16" d="M462.8,687.17c.06,0,.37-.34.69-.84s.54-.94.48-1-.38.33-.7.84-.53.94-.47,1" transform="translate(2.63)"/><path class="cls-16" d="M461,686.22c.05.06.39-.17.77-.51s.65-.66.6-.71-.4.17-.77.51-.65.66-.6.71" transform="translate(2.63)"/><path class="cls-16" d="M459.91,684.15a2.67,2.67,0,0,0,1.15.15c.63,0,1.14,0,1.14-.12a2.6,2.6,0,0,0-1.14-.15,2.49,2.49,0,0,0-1.15.12" transform="translate(2.63)"/><path class="cls-16" d="M459.53,682.69a2.29,2.29,0,0,0,1.28.37,2.24,2.24,0,0,0,1.32-.17,8.16,8.16,0,0,0-1.3-.09,5.84,5.84,0,0,0-1.3-.11" transform="translate(2.63)"/><path class="cls-8" d="M463.55,685.26a4,4,0,0,0,1.41,0,9.6,9.6,0,0,0,1.5-.33,4.32,4.32,0,0,0,.86-.35.73.73,0,0,0,.35-.43.56.56,0,0,0-.21-.57,2.6,2.6,0,0,0-3.2.74,2.66,2.66,0,0,0-.46.94.85.85,0,0,0,0,.38,4.12,4.12,0,0,1,.65-1.2,2.55,2.55,0,0,1,1.2-.77,2.14,2.14,0,0,1,1.68.12c.23.16.14.43-.11.57a4.28,4.28,0,0,1-.79.34,9.77,9.77,0,0,1-1.46.37c-.84.15-1.38.14-1.38.19" transform="translate(2.63)"/><path class="cls-8" d="M463.92,685.33a1.37,1.37,0,0,0,.16-1,2.22,2.22,0,0,0-.38-1,1.39,1.39,0,0,0-1.17-.72.55.55,0,0,0-.43.65,1.53,1.53,0,0,0,.23.63,4.49,4.49,0,0,0,.66.85,2.2,2.2,0,0,0,.81.58s-.28-.26-.67-.71a5.08,5.08,0,0,1-.59-.84c-.19-.3-.32-.84,0-.9s.71.32.92.6a2.5,2.5,0,0,1,.4.92,6.34,6.34,0,0,1,0,1" transform="translate(2.63)"/><path class="cls-16" d="M440.19,683.75s.63-.06,1.62.06a7.2,7.2,0,0,1,3.53,1.48,7,7,0,0,1,2.19,3.13c.33.94.36,1.57.41,1.56s0-.15,0-.44a5.41,5.41,0,0,0-.23-1.18,6.68,6.68,0,0,0-2.21-3.28,6.78,6.78,0,0,0-3.67-1.45,5.73,5.73,0,0,0-1.21,0,1.16,1.16,0,0,0-.43.1" transform="translate(2.63)"/><path class="cls-16" d="M442.5,674.64a38.24,38.24,0,0,0-.21,4.5,39.31,39.31,0,0,0,.06,4.51,38.7,38.7,0,0,0,.21-4.51,39.18,39.18,0,0,0-.06-4.5" transform="translate(2.63)"/><path class="cls-16" d="M450.74,688a17.56,17.56,0,0,0,6.41.09c0-.07-1.44,0-3.2,0s-3.2-.14-3.21-.07" transform="translate(2.63)"/><path class="cls-16" d="M446.45,688c-.06,0,.11.3.26.63s.22.62.3.62.11-.35-.06-.73-.46-.57-.5-.52" transform="translate(2.63)"/><path class="cls-16" d="M444.83,685.94c-.05,0,.09.28.32.51s.45.37.5.32-.09-.28-.31-.51-.45-.37-.51-.32" transform="translate(2.63)"/><path class="cls-16" d="M442.52,685c0,.07.31.07.63.18s.55.29.61.24-.12-.35-.53-.49-.73,0-.71.07" transform="translate(2.63)"/><path class="cls-16" d="M440.87,684.57c0,.06.1.18.28.25s.35.07.38,0-.1-.18-.28-.25-.35-.07-.38,0" transform="translate(2.63)"/><g class="cls-17"><g class="cls-18"><polygon points="442.65 682.37 464.73 682.39 464.71 679.75 442.73 679.61 442.65 682.37"/></g></g><polygon class="cls-19" points="394.66 456.39 356.43 678.82 387.43 680.11 427.27 487.14 437.55 680.26 471.64 679.74 459.26 453.03 394.66 456.39"/><path class="cls-8" d="M434.18,487a5.38,5.38,0,0,1-1.23.16l-3.35.24c-2.83.19-6.75.39-11.05.81s-8.18,1-11,1.37l-3.34.42A5,5,0,0,1,403,490a4.64,4.64,0,0,1,1.2-.3c.77-.16,1.91-.37,3.3-.61,2.8-.47,6.68-1.11,11-1.54s8.25-.56,11.09-.64c1.42,0,2.57-.06,3.36-.05a5,5,0,0,1,1.24.06" transform="translate(2.63)"/><path class="cls-8" d="M459,473.17s-.28.13-.83.22a11.4,11.4,0,0,1-2.35.1,13.56,13.56,0,0,1-12-8.61,11.73,11.73,0,0,1-.65-2.26,2.11,2.11,0,0,1-.06-.86c.1,0,.29,1.19,1.09,3a14.15,14.15,0,0,0,11.64,8.36c1.92.2,3.13,0,3.14.09" transform="translate(2.63)"/><path class="cls-20" d="M460.83,529.82C469,554.39,463.19,573,463.19,573H446.62l-3.56-41.83Z" transform="translate(2.63)"/><path class="cls-20" d="M361.21,635.26a46.92,46.92,0,0,1,7.87-45.46h8.37l-6.62,45.46Z" transform="translate(2.63)"/><path class="cls-21" d="M463.85,540.14a3.39,3.39,0,0,1-1,.37c-.63.19-1.55.46-2.71.74a22.78,22.78,0,0,1-9.27.57,8.13,8.13,0,0,1-2.56-.9,6.9,6.9,0,0,1-1.92-1.66,10.82,10.82,0,0,1-1.91-3.77,23.9,23.9,0,0,1-.6-2.75,3.34,3.34,0,0,1-.09-1c.11,0,.36,1.43,1.09,3.65a11,11,0,0,0,1.92,3.56,6.8,6.8,0,0,0,4.19,2.33,25.14,25.14,0,0,0,9.07-.4,30.68,30.68,0,0,1,3.76-.71" transform="translate(2.63)"/><path class="cls-21" d="M446.65,574.61c-.09,0,.57-1.85,1.38-4.86a65.31,65.31,0,0,0,1.83-24.1c-.35-3.1-.73-5-.63-5a6,6,0,0,1,.37,1.31c.21.85.44,2.1.67,3.65a57.48,57.48,0,0,1,.38,12.23,56.61,56.61,0,0,1-2.23,12c-.45,1.5-.87,2.7-1.21,3.51a5.83,5.83,0,0,1-.56,1.24" transform="translate(2.63)"/><path class="cls-21" d="M377.07,590.44a3.91,3.91,0,0,1-.06,1c-.08.66-.22,1.61-.46,2.78a47.16,47.16,0,0,1-2.8,8.89l-.65,1.47-.09.19-.21,0c-3.21-.46-6.08-.69-8.14-.81a26.72,26.72,0,0,1-3.32-.24,15.92,15.92,0,0,1,3.33-.15,65.76,65.76,0,0,1,8.21.63l-.31.16c.21-.46.42-1,.64-1.45a58.74,58.74,0,0,0,2.93-8.75c.58-2.3.84-3.74.93-3.73" transform="translate(2.63)"/><path class="cls-21" d="M364,636.67a6.23,6.23,0,0,0,1.38-.08,4.73,4.73,0,0,0,2.88-2.17,12.82,12.82,0,0,0,1.36-5.37c.24-2.14.51-4.48.79-6.92.58-4.92,1.13-9.36,1.56-12.57.22-1.51.4-2.78.54-3.8a6.11,6.11,0,0,1,.28-1.38,6.55,6.55,0,0,1-.05,1.41c-.1,1-.22,2.3-.36,3.82-.32,3.22-.81,7.67-1.39,12.58-.3,2.45-.58,4.78-.84,6.92a12.54,12.54,0,0,1-1.54,5.53,4.83,4.83,0,0,1-3.19,2.18,3.29,3.29,0,0,1-1.07,0c-.23-.06-.35-.11-.35-.13" transform="translate(2.63)"/><polygon class="cls-11" points="449.7 318.87 478.87 337.1 511.33 314.32 537.71 331.89 537.71 428.81 511.33 414.84 482.14 431.55 449.79 417.64 423.6 428.67 426.35 343.65 449.7 318.87"/><polygon class="cls-22" points="431.6 346.09 428.81 419.45 448.32 411.33 480.61 426.95 509.63 407.12 533.32 421.69 533.32 335.38 512.41 319.59 481.06 343.74 450.64 325.01 431.6 346.09"/><path class="cls-19" d="M530.69,421.68V374.15c-3.78-4.24-11-5.08-15.53-1.49-5.61,4.47-6.29,13.62-12.55,17.14-2.6,1.47-5.73,1.64-8.56,2.61a15.84,15.84,0,0,0-5.13,27.06L507,407.12Z" transform="translate(2.63)"/><path class="cls-19" d="M508.84,320.31l-30.41,23.43-6.3-3.88c-1.23,3.69-.88,8.06,1.68,11a16.83,16.83,0,0,0,.24,6.48,13.79,13.79,0,0,0,9.34,10.07c4.64,1.26,10.14-.82,12.31-5.11,1.32-2.62,1.59-6,4-7.67,2.8-1.85,6.46-.15,9.78.36,7.08,1.11,14.29-4.26,16.09-11.2A18.1,18.1,0,0,0,523,329.59l-11.25-8.5a26.48,26.48,0,0,0-2.94-.78" transform="translate(2.63)"/><path class="cls-19" d="M468.68,417.4c-2.35-3.76-2.4-8.49-1.89-12.89s1.54-8.81,1.06-13.21-2.88-9-7.06-10.42c-2.36-.83-5-.57-7.36-1.31-4.42-1.36-7.21-5.92-8-10.48s-.09-9.23.26-13.85.24-9.5-2-13.54a10.42,10.42,0,0,0-6.31-4.85L429,346.09l-2.79,73.36,19.51-8.12L478,427l1.85-1.26c-4.24-2.25-8.69-4.35-11.15-8.29" transform="translate(2.63)"/><path class="cls-23" d="M429.85,384.06c.12.12-.69,1.07-1.34,2.42s-.86,2.58-1,2.57a3.91,3.91,0,0,1,.5-2.82c.71-1.46,1.77-2.28,1.87-2.17" transform="translate(2.63)"/><path class="cls-23" d="M440.12,380.76c0,.08-.33.12-.84.13s-1.19-.07-1.94,0a16.92,16.92,0,0,1-2.77.23,4.48,4.48,0,0,1,2.73-.82,7,7,0,0,1,2,.18c.51.1.81.2.79.28" transform="translate(2.63)"/><path class="cls-23" d="M449.78,386.18c-.12.12-1.08-.7-2.28-1.64s-2.22-1.67-2.14-1.82a5.39,5.39,0,0,1,2.5,1.36c1.24,1,2,2,1.92,2.1" transform="translate(2.63)"/><path class="cls-23" d="M456.29,395.3c-.14.08-.91-.92-1.73-2.23a7.17,7.17,0,0,1-1.23-2.54c.13-.1.91.9,1.73,2.23a6.92,6.92,0,0,1,1.23,2.54" transform="translate(2.63)"/><path class="cls-21" d="M462.15,404.88c-.12.1-.92-.88-1.77-2.19a6.75,6.75,0,0,1-1.29-2.52c.14-.08.93.9,1.78,2.2a7,7,0,0,1,1.28,2.51" transform="translate(2.63)"/><path class="cls-21" d="M470.48,412.27c0,.07-.34,0-.82-.22a8.89,8.89,0,0,1-1.76-1c-1.3-.9-2.13-1.88-2-2s1.11.65,2.36,1.52c.62.45,1.22.8,1.63,1.09s.65.5.62.58" transform="translate(2.63)"/><path class="cls-23" d="M481.43,414.12a8.52,8.52,0,0,1-5.61-.17,9.84,9.84,0,0,1,2.81,0,10.21,10.21,0,0,1,2.8.2" transform="translate(2.63)"/><path class="cls-23" d="M492,410.63c.09.13-.93.92-2.36,1.57a5.64,5.64,0,0,1-2.73.77,27.88,27.88,0,0,1,5.09-2.34" transform="translate(2.63)"/><path class="cls-23" d="M500.22,403a5.93,5.93,0,0,1-1.56,2.37c-1.05,1.17-2.08,1.93-2.18,1.81s.72-1.05,1.74-2.2,1.87-2.08,2-2" transform="translate(2.63)"/><path class="cls-23" d="M505.56,393.19a10.61,10.61,0,0,1-2.33,5.11,8.61,8.61,0,0,1,1-2.64,8.25,8.25,0,0,1,1.35-2.47" transform="translate(2.63)"/><path class="cls-23" d="M508.26,382.31a5.8,5.8,0,0,1-.11,2.83,6.08,6.08,0,0,1-.89,2.69,8.23,8.23,0,0,1,.32-2.79,8.37,8.37,0,0,1,.68-2.73" transform="translate(2.63)"/><path class="cls-23" d="M506.49,371.36a4.91,4.91,0,0,1,1.36,2.51,5.2,5.2,0,0,1,.33,2.83,11.05,11.05,0,0,1-.89-2.66,13.45,13.45,0,0,1-.8-2.68" transform="translate(2.63)"/><path class="cls-21" d="M498.06,364.3a5.39,5.39,0,0,1,2.69.93c1.39.77,2.29,1.71,2.19,1.83a11.49,11.49,0,0,1-2.47-1.32,10.61,10.61,0,0,1-2.41-1.44" transform="translate(2.63)"/><path class="cls-21" d="M487,362.77a5.78,5.78,0,0,1,2.82-.33,5.84,5.84,0,0,1,2.79.52,8.68,8.68,0,0,1-2.81.07,9.21,9.21,0,0,1-2.8-.26" transform="translate(2.63)"/><path class="cls-21" d="M476.93,359.93c.17-.07.65,1.13,1.94,1.84s2.55.9,2.52,1.09a3.77,3.77,0,0,1-2.81-.58,3.66,3.66,0,0,1-1.45-1.5c-.24-.48-.27-.82-.2-.85" transform="translate(2.63)"/><path class="cls-21" d="M482.82,351.51c0,.08-.22.29-.64.56s-1,.6-1.65,1c-1.25.86-2.12,1.75-2.25,1.64s.59-1.21,1.91-2.12a7.57,7.57,0,0,1,1.8-.93c.48-.18.8-.26.83-.19" transform="translate(2.63)"/><path class="cls-21" d="M493.78,349.66a9.71,9.71,0,0,1-2.79.22,10.1,10.1,0,0,1-2.81,0,5.3,5.3,0,0,1,2.78-.59,5.37,5.37,0,0,1,2.82.37" transform="translate(2.63)"/><path class="cls-21" d="M504.44,353a7.55,7.55,0,0,1-2.68-.87,8,8,0,0,1-2.5-1.29,6.07,6.07,0,0,1,2.73.75,6.5,6.5,0,0,1,2.45,1.41" transform="translate(2.63)"/><path class="cls-21" d="M514.92,357a5.89,5.89,0,0,1-2.8-.42,7.09,7.09,0,0,1-2.56-1.24,6.9,6.9,0,0,1,2.74.68c1.45.46,2.65.8,2.62,1" transform="translate(2.63)"/><path class="cls-21" d="M525.76,355.24a4.38,4.38,0,0,1-2.41,1.53,4.72,4.72,0,0,1-2.83.37,13.31,13.31,0,0,1,2.64-.92,18.55,18.55,0,0,1,2.6-1" transform="translate(2.63)"/><path class="cls-8" d="M385.37,372.94a1.66,1.66,0,0,1,.12.5c.06.39.13.87.23,1.45.19,1.35.45,3.16.76,5.35.65,4.6,1.53,10.79,2.49,17.64s1.8,13.15,2.33,17.68c.27,2.27.47,4.1.59,5.37.05.58.09,1.06.12,1.47a1.53,1.53,0,0,1,0,.51,1.79,1.79,0,0,1-.12-.5c-.06-.4-.14-.88-.23-1.45-.19-1.36-.45-3.16-.76-5.35-.65-4.6-1.53-10.8-2.5-17.65s-1.8-13.14-2.33-17.67c-.26-2.27-.46-4.1-.58-5.37-.05-.58-.09-1.07-.13-1.47a1.67,1.67,0,0,1,0-.51" transform="translate(2.63)"/><path class="cls-24" d="M416.54,288.1,414,339.57l22,2.08,1.22-12.49s7.77,1.92,10.13-5.27c1.51-4.6,2.85-40.58,2.85-40.58Z" transform="translate(2.63)"/><path class="cls-8" d="M452.15,289.32c.61,4.82-6.13,7.61-6.13,7.61l-1.18,11.39a22.46,22.46,0,0,0-3.16,0c.56-5.34-6.32-4.3-7-.65s3.32,5.84,3.32,5.84c-2.76,4.23-3.88,6.46-7.79,10.43-4.23,4.29-6.51,4.63-10.88,4.5l-4.81-.22s-1.72-4.11-3-13.83c-.61-4.67-4.26-10.8-3.22-18.4,2.95-21.59,23.64-19.31,23.64-19.31,10.74.3,18.78,1.49,20.2,12.67" transform="translate(2.63)"/><path class="cls-8" d="M446.32,296.57a16.27,16.27,0,0,0,10.44-11.13,8,8,0,0,0-.39-6c-1-1.77-3.42-2.84-5.22-1.85a6,6,0,0,0-11.62-2,5.37,5.37,0,0,0-5.94-1.67,7.61,7.61,0,0,0-4.46,4.59,13.29,13.29,0,0,0-.53,6.51" transform="translate(2.63)"/><path class="cls-9" d="M410.63,306c-3.93-3.87-5.14-7.9-4.7-13.4a21.28,21.28,0,0,1,16.24-31.84,9.12,9.12,0,0,1,5.51.84,4.36,4.36,0,0,1,2.2,4.77c-.57,1.8-3.2,2.72-4.51,1.36,4.3,2.56,8.69,5.19,11.91,9s5.13,9.15,3.64,13.93c-1.21,3.91-4.44,6.84-7.76,9.25-6.52,4.75-14.81,8.39-22.53,6.07" transform="translate(2.63)"/><path class="cls-8" d="M435,273.78a6.51,6.51,0,0,1-.15,1.54,21.13,21.13,0,0,1-1.14,4.06,22.42,22.42,0,0,1-22,14.3,19.62,19.62,0,0,1-4.17-.6,6.44,6.44,0,0,1-1.47-.48,37.43,37.43,0,0,0,5.65.66,22.74,22.74,0,0,0,21.56-14,36.77,36.77,0,0,0,1.68-5.44" transform="translate(2.63)"/><path class="cls-8" d="M420.35,306.26a5,5,0,0,1-2.27-.73,10.46,10.46,0,0,1-5.74-9.48,5.22,5.22,0,0,1,.41-2.35c.09,0-.08.91,0,2.34a11.2,11.2,0,0,0,5.53,9.13c1.23.74,2.1,1,2.07,1.09" transform="translate(2.63)"/><path class="cls-8" d="M428.38,302.9a5,5,0,0,1-1.92-.82,11.61,11.61,0,0,1-5.34-8.26,4.76,4.76,0,0,1,0-2.09,16.9,16.9,0,0,1,.36,2,13.52,13.52,0,0,0,1.84,4.48,13.66,13.66,0,0,0,3.33,3.51,15.45,15.45,0,0,1,1.69,1.16" transform="translate(2.63)"/><path class="cls-8" d="M436.63,297.44c-.17.08-1.29-2.73-3.71-5.49s-5-4.3-4.9-4.45,2.88,1.19,5.35,4.07a13.77,13.77,0,0,1,3.26,5.87" transform="translate(2.63)"/><path class="cls-8" d="M441.41,288.9c-.2.1-1-2.65-3.38-5s-5.24-2.92-5.16-3.11a3.91,3.91,0,0,1,1.81.33,10,10,0,0,1,3.77,2.37,11.89,11.89,0,0,1,2.45,3.7,4.6,4.6,0,0,1,.51,1.76" transform="translate(2.63)"/><g class="cls-25"><g class="cls-26"><path d="M405,290.94c2.65.82,5.55,0,7.95-1.43s4.46-3.31,6.77-4.84a7.34,7.34,0,0,1,2.61-1.22,3.09,3.09,0,0,1,2.71.67,2.93,2.93,0,0,1,.63,2.95,5.58,5.58,0,0,1-1.81,2.56c-3.43,3-8.33,3.52-12.89,3.63a9.41,9.41,0,0,1-3.09-.27,3.39,3.39,0,0,1-2.25-2" transform="translate(2.63)"/></g></g><path class="cls-8" d="M426.49,277.2a3.24,3.24,0,0,1-.45,1c-.33.6-.82,1.46-1.48,2.5a30.32,30.32,0,0,1-6.22,7.29,16.76,16.76,0,0,1-8.79,3.78,10.91,10.91,0,0,1-2.92-.09,2.84,2.84,0,0,1-1-.28,23,23,0,0,0,3.91,0A17.45,17.45,0,0,0,418,287.5a34,34,0,0,0,6.25-7.06,37.61,37.61,0,0,1,2.27-3.24" transform="translate(2.63)"/><path class="cls-8" d="M421.36,283.68a7.38,7.38,0,0,0,2.36,7.15c0,.06-.49-.09-1.08-.59a5.56,5.56,0,0,1-1.64-2.48,5.62,5.62,0,0,1-.16-3c.18-.75.46-1.14.52-1.11" transform="translate(2.63)"/><path class="cls-8" d="M429.33,264.68s-.41-.27-1.2-.64a7.31,7.31,0,0,0-3.55-.59,8.65,8.65,0,0,0-4.9,2,12.54,12.54,0,0,0-3.57,5.48,17.13,17.13,0,0,0-1,6.54,8,8,0,0,0,1.87,4.93,6.35,6.35,0,0,0,3,1.94c.84.21,1.33.17,1.33.23a1,1,0,0,1-.35.06,5.26,5.26,0,0,1-1-.07,6.13,6.13,0,0,1-3.26-1.89,8.24,8.24,0,0,1-2.11-5.16,17,17,0,0,1,1-6.77,12.64,12.64,0,0,1,3.78-5.7,8.78,8.78,0,0,1,5.21-2,7.11,7.11,0,0,1,3.69.8,4.49,4.49,0,0,1,.84.58c.18.15.27.24.25.26" transform="translate(2.63)"/><path class="cls-8" d="M414.46,290a1.46,1.46,0,0,1-.48,0,6.72,6.72,0,0,1-1.32-.35,9.17,9.17,0,0,1-4.05-3,11.79,11.79,0,0,1-2.46-7,16.8,16.8,0,0,1,2.19-8.84A17.14,17.14,0,0,1,421.77,262a17,17,0,0,1,5,.24c.58.14,1,.25,1.32.35s.45.16.44.18a21.74,21.74,0,0,0-6.73-.36,17,17,0,0,0-13,8.7,16.46,16.46,0,0,0-2.16,8.53,11.62,11.62,0,0,0,2.24,6.77,9.54,9.54,0,0,0,3.81,3c1.07.46,1.73.53,1.72.59" transform="translate(2.63)"/><path class="cls-8" d="M433.4,280.33a7.24,7.24,0,0,0-.9-3.69,8.53,8.53,0,0,0-2.87-2.92,20.3,20.3,0,0,0-4.7-2,6.28,6.28,0,0,1-2.45-1.35,2.91,2.91,0,0,1-1-2.49,3,3,0,0,1,1.36-2,3.92,3.92,0,0,1,2-.64,7.64,7.64,0,0,1,2.87.51,3.08,3.08,0,0,1,1,.44,4.09,4.09,0,0,1-1-.22,8.37,8.37,0,0,0-2.77-.32,3.52,3.52,0,0,0-1.73.63,2.55,2.55,0,0,0-1.1,1.67,2.44,2.44,0,0,0,.83,2,6.11,6.11,0,0,0,2.24,1.21,19.39,19.39,0,0,1,4.81,2.14,8.55,8.55,0,0,1,2.93,3.18,6,6,0,0,1,.72,2.82,2.37,2.37,0,0,1-.18,1.06" transform="translate(2.63)"/><path class="cls-24" d="M526.76,379.35l4.76-2.05c4.18-2.25,6.59-3.34,7.32-5,1-2.23-1.9-2.81-1.9-2.81s2.7-2.4,1.6-4.2a2.09,2.09,0,0,0-2.31-.75s2.33-2.24,2.39-3.63c.09-1.9-2.22-1.92-2.22-1.92,2.81-3.92,1.5-6.08.52-6s-3.35,2.74-3.35,2.74c-2.2,1.75-8.14,6.68-7.19,1.87s-.13-8.87-1.19-9.76-2.68.25-2.33,1.73a17.77,17.77,0,0,1,0,4.94,11.64,11.64,0,0,1-1.07,3.83c-.67,1.4-1.29,2.55-1.85,3.53l-2.53,5.89Z" transform="translate(2.63)"/><path class="cls-5" d="M435.66,366.84l34.2,46.78a14.84,14.84,0,0,0,22,2.21l38-34.59L516,364.65l-31.84,24.54-23.36-38.73a15,15,0,0,0-20.89-3.76h0a15,15,0,0,0-4.27,20.14" transform="translate(2.63)"/><path class="cls-11" d="M441.09,374.35a5.38,5.38,0,0,1,.73,1c.5.76,1.1,1.68,1.82,2.76,1.53,2.33,3.67,5.53,6.14,9s4.79,6.54,6.49,8.75l2,2.63a4.94,4.94,0,0,1,.68,1,4.5,4.5,0,0,1-.86-.86c-.53-.58-1.26-1.44-2.16-2.51-1.78-2.15-4.16-5.2-6.64-8.67s-4.56-6.73-6-9.12c-.73-1.2-1.29-2.18-1.67-2.86a4.89,4.89,0,0,1-.53-1.1" transform="translate(2.63)"/><path class="cls-23" d="M374.62,384.07s-6,26.19-6.1,29.67c-.1,4.56,5.7,12.43,11,13.49,8.51,1.71,16.77-5.73,16.77-5.73l1-35.12Z" transform="translate(2.63)"/><path class="cls-5" d="M374,386.83s5-39.73,23.71-44.7,16.3-2.56,16.3-2.56l15.69,1.87a33.91,33.91,0,0,1,29.74,30.19l-.42,35.3s4,25.33,4,26.94c0,10.27-4,21.39-4,21.39l-67.29,3s-4.33-1.56-6.37-7.94S392,422.4,392,422.4Z" transform="translate(2.63)"/><g class="cls-25"><g class="cls-27"><path d="M443.06,377.09a166.77,166.77,0,0,0,8.62,42.56,35.19,35.19,0,0,0,3.47,7.77c.77,1.18,2,2.4,3.35,2.18a2.76,2.76,0,0,0,2-2.06,8.16,8.16,0,0,0,.08-3c-.9-8.92-.76-16.1-1.66-25" transform="translate(2.63)"/></g></g><path class="cls-8" d="M421.53,373.69c-.16-1.85,6.62-31.89,6.62-31.89l13.08,2.68-8,31.25Z" transform="translate(2.63)"/><path class="cls-28" d="M433.11,435.25c9.8-.89,22.32-23.93,26.17-37.08,2.78,20.23-9.86,40.5-24.51,51.66" transform="translate(2.63)"/><path class="cls-11" d="M360.64,392.92l-6.35,0c-.34,2.88,1,5.88.13,8.64a12.11,12.11,0,0,1-1.73,3.35c-1.3,1.8-1.27,15-.16,19.54h7.6Z" transform="translate(2.63)"/><path class="cls-29" d="M450,367.74H345.64c-4-11.39-5.56-22.33,0-32H450c8,10.28,5.95,21,0,32" transform="translate(2.63)"/><path class="cls-29" d="M384.88,473.87c-15,1.44-18.75-2.92-22.51-9.68s-3.6-14.92-3.34-22.65q.68-20.13,1.36-40.25c.3-8.92-.5-18.55,4.09-26.2s11.6-10.19,22.33-9.54l25.8.67c13.4.35,24.09,5.36,23.71,20.47l.38,69.07a17.39,17.39,0,0,1-17,17.39Z" transform="translate(2.63)"/><rect class="cls-8" x="379.9" y="334.9" width="4.48" height="33.69"/><rect class="cls-8" x="416.33" y="334.81" width="4.48" height="33.69"/><path class="cls-11" d="M431.32,373.69a1.07,1.07,0,0,1,0,.29c0,.22,0,.5,0,.84-.06.74-.11,1.84-.33,3.23A51,51,0,0,1,428,389.63a45.31,45.31,0,0,1-3.68,7.39,33.94,33.94,0,0,1-6,7.33l-2,1.64c-.69.51-1.44,1-2.17,1.45a9.21,9.21,0,0,1-1.13.69l-1.2.59a17.18,17.18,0,0,1-2.49,1.08l-2.64.86c-.9.21-1.83.35-2.76.53-.47.07-.93.19-1.4.23l-1.43.07c-1,0-1.92.13-2.88.11a53.44,53.44,0,0,1-11.18-1.39,35.87,35.87,0,0,1-9.72-3.92,27.19,27.19,0,0,1-7.22-6.16l-1.35-1.74c-.41-.59-.74-1.22-1.11-1.81A26.08,26.08,0,0,1,365.9,393a37.56,37.56,0,0,1-2.47-11.67c0-1.41,0-2.51,0-3.25,0-.34,0-.62,0-.84a.15.15,0,1,1,.06,0c0,.22,0,.5,0,.84,0,.79.06,1.87.1,3.24a38.69,38.69,0,0,0,2.62,11.52,24.91,24.91,0,0,0,1.77,3.49c.37.58.69,1.19,1.11,1.77l1.33,1.7a26.87,26.87,0,0,0,7.12,6,35.3,35.3,0,0,0,9.59,3.83A53.46,53.46,0,0,0,398.25,411c.95,0,1.89-.07,2.83-.11l1.41-.06c.46,0,.91-.16,1.37-.23.91-.17,1.82-.31,2.71-.51l2.58-.84a16.46,16.46,0,0,0,2.44-1.05l1.18-.57a11.36,11.36,0,0,0,1.11-.68c.72-.47,1.45-.91,2.13-1.41l1.93-1.6a33.86,33.86,0,0,0,6-7.18,45.62,45.62,0,0,0,3.7-7.3,52.79,52.79,0,0,0,3.1-11.45c.26-1.38.34-2.47.44-3.21,0-.34.08-.61.11-.83a1,1,0,0,1,.05-.29" transform="translate(2.63)"/><rect class="cls-11" x="388.63" y="399.04" width="16.15" height="4.51"/><rect class="cls-11" x="413.17" y="386.38" width="2.85" height="65.21"/><rect class="cls-11" x="411.26" y="440.26" width="7.31" height="1.72"/><rect class="cls-11" x="377" y="386.38" width="2.85" height="64.58"/><rect class="cls-11" x="375.09" y="439.63" width="7.31" height="1.72"/><path class="cls-11" d="M429.78,383a1.75,1.75,0,0,1,0,.37c0,.28,0,.64-.08,1.09-.08,1-.2,2.41-.34,4.2-.29,3.64-.68,8.92-1,15.44s-.53,14.3-.49,22.94c0,4.32.11,8.85.28,13.54.08,2.35.22,4.75.08,7.2a20,20,0,0,1-1.62,7.27,11.79,11.79,0,0,1-4.93,5.57,17.77,17.77,0,0,1-7,1.84c-4.71.38-9.24.55-13.57.64-8.65.16-16.44-.1-23-.48-3.26-.21-6.21-.34-8.8-.72a15.89,15.89,0,0,1-6.3-2.18,9.66,9.66,0,0,1-3-3,5.55,5.55,0,0,1-.64-1.33s.21.47.73,1.27a9.83,9.83,0,0,0,3,2.83,15.84,15.84,0,0,0,6.23,2.06c2.55.35,5.52.44,8.78.63,6.52.32,14.3.54,22.93.35,4.31-.1,8.85-.29,13.52-.67a17.23,17.23,0,0,0,6.77-1.78,11.1,11.1,0,0,0,4.68-5.31,19.23,19.23,0,0,0,1.58-7.06c.14-2.4,0-4.79-.07-7.14-.16-4.7-.25-9.24-.25-13.56,0-8.65.25-16.43.62-23s.82-11.8,1.18-15.44c.18-1.82.34-3.23.45-4.19.06-.45.1-.81.14-1.08a1.74,1.74,0,0,1,.06-.37" transform="translate(2.63)"/><path class="cls-11" d="M433.11,467.73c-.18,0-.64-3.19-2.82-6.43s-5-5-4.83-5.11a5.52,5.52,0,0,1,1.82,1.06,15.34,15.34,0,0,1,5.57,8.39,5.31,5.31,0,0,1,.26,2.09" transform="translate(2.63)"/><path class="cls-11" d="M406.72,425.72a3.49,3.49,0,0,1,0,.71q0,.82.06,2.16a27.48,27.48,0,0,1-.05,3.46,12.23,12.23,0,0,1-1.31,4.36,12.72,12.72,0,0,1-9.38,6.71,12.82,12.82,0,0,1-6.94-.86,13.91,13.91,0,0,1-3.19-2,13.6,13.6,0,0,1-2.54-2.9,12.6,12.6,0,0,1-2-5.89c-.1-2,0-3.94,0-5.79v-.28h.27l18.1.13,5.16.08,1.35,0a1.6,1.6,0,0,1,.44,0l-.51,0-1.41,0-5.22.07-17.91.13.28-.27c0,1.83,0,3.8.06,5.74a12.19,12.19,0,0,0,1.9,5.63,12.87,12.87,0,0,0,2.43,2.76,13.16,13.16,0,0,0,3,1.88,12.33,12.33,0,0,0,6.64.86,12,12,0,0,0,5.62-2.34,12.37,12.37,0,0,0,4.83-8.24c.15-1.31.13-2.43.16-3.35s0-1.6.06-2.16,0-.77,0-.78" transform="translate(2.63)"/><path class="cls-30" d="M359.93,414.69H349.75s1,26.5,9.28,26.85Z" transform="translate(2.63)"/><path class="cls-8" d="M360.64,395.69a17,17,0,0,1-6.25,0,16.43,16.43,0,0,1,6.25,0" transform="translate(2.63)"/><path class="cls-11" d="M377.22,474.07l.27,0,.79-.05,3.05-.14,11.23-.38L409.2,473l9.83-.27c1.69-.08,3.47,0,5.17-.2a15,15,0,0,0,5-1.48,13.86,13.86,0,0,0,4.14-3.16,10,10,0,0,0,2.41-4.39,40.94,40.94,0,0,0,.74-9.72c0-6.25,0-11.89.06-16.65s.06-8.53.09-11.23c0-1.29,0-2.31,0-3.05,0-.32,0-.58,0-.8a.14.14,0,1,1,.06,0c0,.22,0,.48,0,.8,0,.74,0,1.76.05,3.05,0,2.7.06,6.53.1,11.23s0,10.4.07,16.65a40.94,40.94,0,0,1-.72,9.86,10.42,10.42,0,0,1-2.54,4.63,14.34,14.34,0,0,1-4.31,3.31,15.45,15.45,0,0,1-5.21,1.53c-1.8.17-3.51.12-5.22.19l-9.83.24-16.65.36-11.23.2-3.06,0h-.79l-.27,0" transform="translate(2.63)"/><path class="cls-21" d="M47,274.36c3.22,0,3.22-5,0-5s-3.22,5,0,5Z" transform="translate(2.63)"/><path class="cls-21" d="M47,274.36c3.22,0,3.22-5,0-5s-3.22,5,0,5Z" transform="translate(2.63)"/><g class="cls-25"><g class="cls-31"><path d="M-2.63,526.31A167.22,167.22,0,0,0,6,568.87a34.73,34.73,0,0,0,3.47,7.77c.77,1.19,1.95,2.41,3.35,2.18a2.75,2.75,0,0,0,2-2.05,8.18,8.18,0,0,0,.08-3c-.89-8.93-.76-16.11-1.65-25" transform="translate(2.63)"/></g></g></g></g></g><path class="cls-19" d="M316.39,162.4H198.75s10.4-18.93,40.68-16.18c28.92,2.63,30.39-9.31,45.1-10.78s27,9.8,31.86,27" transform="translate(2.63)"/><path class="cls-19" d="M628.5,148.85H716s-7.74-14.07-30.25-12c-21.5,1.95-22.6-6.93-33.53-8s-20,7.29-23.69,20" transform="translate(2.63)"/><path class="cls-4" d="M475.74,186.31h87.47s-7.74-14.07-30.25-12c-21.5,2-22.59-6.93-33.53-8s-20,7.29-23.69,20" transform="translate(2.63)"/><path class="cls-32" d="M700.33,99.09h87.46s-7.73-14.08-30.25-12C736,89,735,80.14,724,79s-20,7.29-23.69,20" transform="translate(2.63)"/><path class="cls-22" d="M497.61,18.84h43.73s-3.86-7-15.12-6c-10.75,1-11.3-3.46-16.77-4s-10,3.65-11.84,10" transform="translate(2.63)"/><path class="cls-22" d="M753.32,15.67h68s-6-10.95-23.53-9.36C781.11,7.83,780.26.92,771.75.07s-15.59,5.67-18.43,15.6" transform="translate(2.63)"/><path class="cls-32" d="M316.39,52.68H376s-5.27-9.58-20.6-8.19C340.71,45.82,340,39.78,332.52,39s-13.65,5-16.13,13.65" transform="translate(2.63)"/><path class="cls-32" d="M452.16,72.82h87.47s-7.74-14.07-30.25-12c-21.5,2-22.6-6.93-33.53-8s-20,7.29-23.69,20" transform="translate(2.63)"/><path class="cls-32" d="M177,72.82h43.74s-3.87-7-15.13-6c-10.75,1-11.3-3.46-16.76-4s-10,3.64-11.85,10" transform="translate(2.63)"/><path class="cls-22" d="M177,23.88h69.69s-6.16-11.22-24.1-9.58c-17.13,1.56-18-5.52-26.71-6.39s-16,5.81-18.88,16" transform="translate(2.63)"/><path class="cls-22" d="M593.55,58.12H700.33s-9.44-17.19-36.93-14.68c-26.25,2.38-27.58-8.46-40.93-9.79S598,42.55,593.55,58.12" transform="translate(2.63)"/><path class="cls-32" d="M108.76,122.35h112s-9.91-18-38.74-15.4c-27.54,2.5-28.94-8.87-42.94-10.27s-25.67,9.33-30.33,25.67" transform="translate(2.63)"/><path class="cls-22" d="M85.34,26.71h34.14s-3-5.5-11.81-4.7c-8.39.76-8.81-2.7-13.08-3.13s-7.83,2.85-9.25,7.83" transform="translate(2.63)"/><path class="cls-19" d="M397.83,112.28h57.29s-5.06-9.22-19.81-7.88c-14.09,1.28-14.8-4.54-22-5.25s-13.13,4.77-15.52,13.13" transform="translate(2.63)"/><path class="cls-19" d="M503.41,128.23h32.14s-2.85-5.17-11.12-4.42c-7.9.72-8.3-2.54-12.32-2.94s-7.36,2.68-8.7,7.36" transform="translate(2.63)"/><path class="cls-33" d="M860.23,265.31a8.92,8.92,0,0,1-8.59,8.89h-4.39a8.93,8.93,0,0,1-9-8.89V211.76a8.92,8.92,0,0,1,9-8.89h4.39a8.84,8.84,0,0,1,8.59,8.89v10.69c0,2.3-1,3.39-1.9,3.79l-5.19,2.4V213a3.85,3.85,0,0,0-7.69,0v51a3.85,3.85,0,1,0,7.69,0v-9.39c0-2.3,1-3.4,1.9-3.9.6-.3,3.4-1.5,5.19-2.3Z" transform="translate(2.63)"/><path class="cls-34" d="M863.43,365.2h-7.89l-6.3-48.15L843,365.2h-7.89l10.59-69.93h3.89c3,0,3.5,1.9,3.8,3.79Z" transform="translate(2.63)"/><path class="cls-35" d="M852.84,456.9h-3.6c-3.59,0-4.19-4.3-4.29-4.89l-10-65h5.49c.5,0,1.7.4,2.1,2.7l6.69,43.85,7.1-46.55h7.19Z" transform="translate(2.63)"/><path class="cls-34" d="M863.43,548.6h-7.89l-6.3-48.15L843,548.6h-7.89l10.59-69.93h3.89c3,0,3.5,1.9,3.8,3.8Z" transform="translate(2.63)"/><path class="cls-33" d="M860.23,632.11a8.91,8.91,0,0,1-8.59,8.89h-4.39a8.92,8.92,0,0,1-9-8.89V578.56a8.93,8.93,0,0,1,9-8.89h4.39a8.85,8.85,0,0,1,8.59,8.89v10.69c0,2.3-1,3.4-1.89,3.8l-5.2,2.4V579.76a3.85,3.85,0,0,0-7.69,0v51a3.85,3.85,0,1,0,7.69,0v-9.39c0-2.3,1-3.4,1.9-3.89.6-.3,3.4-1.5,5.19-2.3Z" transform="translate(2.63)"/><path class="cls-21" d="M796.64,657.37a1.3,1.3,0,0,1,1.4,1.35v32.22h-3.46V676.32a.83.83,0,0,0-.81-.77H790v15.39h-3.46V658.72a1.29,1.29,0,0,1,1.39-1.35H790V671c0,.95.38,1.19,1.2,1.19h3.35V657.37Z" transform="translate(2.63)"/><path class="cls-21" d="M822.44,657a4.31,4.31,0,0,1,4.17,4.27v25.75a4.32,4.32,0,0,1-4.17,4.22H819.8a4.34,4.34,0,0,1-4.31-4.22V661.31A4.29,4.29,0,0,1,819.8,657Zm-1.15,31.22a1.83,1.83,0,0,0,1.82-1.87V661.93a1.83,1.83,0,0,0-1.82-1.87h-.53a1.9,1.9,0,0,0-1.82,1.87v24.46a1.9,1.9,0,0,0,1.82,1.87Z" transform="translate(2.63)"/><path class="cls-21" d="M855.43,659.87a1.82,1.82,0,0,1-1.82.91h-2.69a.88.88,0,0,0-.86.81v29.35h-2.45c-.81,0-1-.48-1-.72V660.78h-4.85v-2.35a1.07,1.07,0,0,1,1.06-1.06h13.71Z" transform="translate(2.63)"/><path class="cls-21" d="M883,687.54c-.38.86-1,2.2-1.1,2.49a2,2,0,0,1-1.87.91h-7.67V658.33a1,1,0,0,1,1.05-1h9l-1.15,2.5a1.83,1.83,0,0,1-1.82,1h-2.78a.78.78,0,0,0-.82.81v10h5.18c-.38.86-1,2.25-1.1,2.54a1.88,1.88,0,0,1-1.83.91h-1.43a.84.84,0,0,0-.82.81v11.66Z" transform="translate(2.63)"/><path class="cls-21" d="M911.91,687.54c-.38.86-.95,2.2-1.1,2.49a2,2,0,0,1-1.87.91h-8.25V657.37h2.4a1.1,1.1,0,0,1,1.06,1.06v29.11Z" transform="translate(2.63)"/><path class="cls-36" d="M619.91,900.48s4.57.47,7.06,14.45-.7,48.51-8.81,43.49c-5.25-3.25,3.76-16.23,3.76-28.72S619.91,900.48,619.91,900.48Z" transform="translate(2.63)"/><circle class="cls-19" cx="577.52" cy="945.49" r="77.72"/><path class="cls-37" d="M520.75,945.49c0,16.69,12.2,40.1,28.76,53.27,17.81,14.18,47,21.41,41,22.88a65.39,65.39,0,0,1-15.65,1.57,77.72,77.72,0,1,1,0-155.44c8.05,0,18.68,1.73,18.44,4-.54,5.34-38.65,7.48-57.31,22.1C520.33,906.17,520.75,929.56,520.75,945.49Z" transform="translate(2.63)"/><path class="cls-36" d="M635.59,909.64s4.59-.27,9.28,13.14,7,48-1.76,44.34c-5.7-2.37,1.12-16.63-.87-29S635.59,909.64,635.59,909.64Z" transform="translate(2.63)"/><text class="cls-38" transform="translate(526.13 955.72)">Disfruta</text><path class="cls-36" d="M122.74,794s4.57.46,7.07,14.45-.7,48.51-8.82,43.49c-5.24-3.25,3.76-16.24,3.76-28.73S122.74,794,122.74,794Z" transform="translate(2.63)"/><circle class="cls-22" cx="80.35" cy="838.98" r="77.72"/><path class="cls-39" d="M18.23,842.08c0,16.69,15.75,41.44,34.11,50.17,20.56,9.77,47,21.41,41,22.87a64.66,64.66,0,0,1-15.65,1.58,77.73,77.73,0,0,1,0-155.45c8,0,21.89,2.08,19.26,3.77-4.52,2.9-36.09,10.69-54.75,25.31C26.54,802.63,18.23,826.14,18.23,842.08Z" transform="translate(2.63)"/><path class="cls-36" d="M142.43,867.63s2.46,2.72,6.31-11,4-48.35-4.53-44.14c-5.53,2.72,2.43,16.56.94,29S142.43,867.63,142.43,867.63Z" transform="translate(2.63)"/><text class="cls-40" transform="translate(25.95 849.2)"><tspan class="cls-41">R</tspan><tspan x="19.26" y="0">ese</tspan><tspan class="cls-42" x="68.95" y="0">r</tspan><tspan class="cls-43" x="81.46" y="0">v</tspan><tspan x="98.42" y="0">a</tspan></text><circle class="cls-36" cx="142.34" cy="872.5" r="2.51"/><path class="cls-36" d="M345.25,900.48s4.57.47,7.07,14.45-.7,48.51-8.81,43.49c-5.25-3.25,3.75-16.23,3.75-28.72S345.25,900.48,345.25,900.48Z" transform="translate(2.63)"/><circle class="cls-32" cx="302.86" cy="945.49" r="77.72"/><path class="cls-44" d="M246.1,945.49c0,16.69,12.2,40.1,28.75,53.27,17.81,14.18,47,21.41,41,22.88a65.36,65.36,0,0,1-15.64,1.57,77.72,77.72,0,1,1,0-155.44c8,0,18.67,1.73,18.44,4-.55,5.34-38.66,7.48-57.31,22.1C245.67,906.17,246.1,929.56,246.1,945.49Z" transform="translate(2.63)"/><path class="cls-36" d="M372.34,941.13s3.15.65,1.73,14.78-9.67,36-12.44,26.84c-1.39-4.56,2.37-4.13,5.79-16.14,2.58-9.05,1.7-20,2.6-25.17C370.31,939.74,372.34,941.13,372.34,941.13Z" transform="translate(2.63)"/><text class="cls-40" transform="translate(252.58 958.92)">Explo<tspan class="cls-45" x="82.07" y="0">r</tspan><tspan x="93.51" y="0">a</tspan></text><circle class="cls-36" cx="373.65" cy="935.5" r="2.14"/><circle class="cls-36" cx="371.9" cy="929.7" r="1.75"/><circle class="cls-29" cx="844.21" cy="849.2" r="77.72"/><path class="cls-30" d="M787.44,849.2c0,16.69,12.2,40.1,28.75,53.27,17.82,14.18,47,21.42,41,22.88a65.35,65.35,0,0,1-15.65,1.58,77.73,77.73,0,1,1,0-155.45c8,0,18.68,1.73,18.44,4-.54,5.35-38.65,7.48-57.31,22.1C787,809.88,787.44,833.27,787.44,849.2Z" transform="translate(2.63)"/><path class="cls-22" d="M912.29,861.14s5.21-19.5.27-32.83c-5.2-14-12.36-32.13-15.48-23.11-.75,2.18,9.89,20.12,12.84,32.69,3,13-1.6,20.61-1.4,22C908.87,862.56,912.29,861.14,912.29,861.14Z" transform="translate(2.63)"/><text class="cls-46" transform="translate(802.76 859.78)">Sie<tspan class="cls-43" x="43.65" y="0">n</tspan><tspan class="cls-47" x="63.23" y="0">t</tspan><tspan x="74.78" y="0">e</tspan></text><circle class="cls-22" cx="906.37" cy="878.3" r="2.13"/><circle class="cls-22" cx="900.74" cy="885.87" r="1.06"/></g></g></svg>